<svg width="8" height="15" viewBox="0 0 8 15" fill="none" xmlns="http://www.w3.org/2000/svg">
<path d="M0.188937 6.99074L6.97775 0.586237C7.09102 0.479321 7.24152 0.419677 7.39802 0.419677C7.55451 0.419677 7.70501 0.479321 7.81828 0.586237L7.82559 0.593474C7.88069 0.645305 7.92457 0.707693 7.95455 0.776844C7.98454 0.845994 8 0.920462 8 0.995715C8 1.07097 7.98454 1.14544 7.95455 1.21459C7.92457 1.28374 7.88069 1.34613 7.82559 1.39796L1.43268 7.42856L7.82559 13.4568C7.88069 13.5086 7.92457 13.571 7.95455 13.6401C7.98454 13.7093 8 13.7837 8 13.859C8 13.9343 7.98454 14.0087 7.95455 14.0779C7.92457 14.147 7.88069 14.2094 7.82559 14.2612L7.81828 14.2685C7.70501 14.3754 7.55451 14.435 7.39802 14.435C7.24152 14.435 7.09102 14.3754 6.97775 14.2685L0.188938 7.86397C0.129233 7.80765 0.081701 7.73991 0.0492239 7.66486C0.0167468 7.58981 3.09545e-07 7.50901 3.0598e-07 7.42736C3.02415e-07 7.34571 0.0167468 7.26491 0.0492239 7.18986C0.081701 7.1148 0.129233 7.04706 0.188937 6.99074Z" fill="currentColor"/>
</svg>
