<svg width="12" height="19" viewBox="0 0 12 19" fill="none" xmlns="http://www.w3.org/2000/svg">
<path d="M9.94219 9.94219C11.0414 8.84297 11.6484 7.37871 11.6484 5.82422C11.6484 4.26768 11.0435 2.80547 9.94219 1.70625C8.84297 0.607031 7.37871 0 5.82422 0C4.26973 0 2.80547 0.60498 1.70625 1.70625C0.607032 2.80752 0 4.26768 0 5.82422C0 7.13262 0.428613 8.37539 1.21816 9.39053C1.36787 9.5833 1.52988 9.76582 1.7042 9.94219C1.87852 10.1165 2.06309 10.2785 2.25381 10.4282C3.06592 11.0599 4.02363 11.4618 5.04492 11.5972V13.7812H2.70703C2.6168 13.7812 2.54297 13.8551 2.54297 13.9453V15.1758C2.54297 15.266 2.6168 15.3398 2.70703 15.3398H5.04492V18.2109C5.04492 18.3012 5.11875 18.375 5.20898 18.375H6.43945C6.52969 18.375 6.60352 18.3012 6.60352 18.2109V15.3398H8.94141C9.03164 15.3398 9.10547 15.266 9.10547 15.1758V13.9453C9.10547 13.8551 9.03164 13.7812 8.94141 13.7812H6.60352V11.5972C7.86475 11.429 9.02754 10.8568 9.94219 9.94219ZM5.82422 10.0898C4.68398 10.0898 3.61553 9.64688 2.80752 8.84092C2.00156 8.03496 1.55859 6.96445 1.55859 5.82422C1.55859 4.68398 2.00156 3.61553 2.80752 2.80752C3.61348 1.99951 4.68398 1.55859 5.82422 1.55859C6.96445 1.55859 8.03291 2.00156 8.84092 2.80752C9.64687 3.61348 10.0898 4.68398 10.0898 5.82422C10.0898 6.96445 9.64687 8.03291 8.84092 8.84092C8.03291 9.64688 6.96445 10.0898 5.82422 10.0898Z" fill="currentColor"/>
</svg>
