<svg width="17" height="17" viewBox="0 0 17 17" fill="none" xmlns="http://www.w3.org/2000/svg">
<path d="M15.4629 0H10.2949C10.2272 0 10.1719 0.0553711 10.1719 0.123047V1.27148C10.1719 1.33916 10.2272 1.39453 10.2949 1.39453H13.5844L9.49717 5.48174C8.47178 4.69219 7.2208 4.26562 5.90625 4.26562C4.3292 4.26562 2.84443 4.88086 1.73086 5.99648C0.617285 7.11211 0 8.59482 0 10.1719C0 11.7489 0.615234 13.2337 1.73086 14.3473C2.84443 15.4629 4.3292 16.0781 5.90625 16.0781C7.4833 16.0781 8.96807 15.4629 10.0816 14.3473C11.1973 13.2337 11.8125 11.7489 11.8125 10.1719C11.8125 8.85732 11.3859 7.61045 10.5984 6.58506L14.6836 2.4999V5.7832C14.6836 5.85088 14.739 5.90625 14.8066 5.90625H15.9551C16.0228 5.90625 16.0781 5.85088 16.0781 5.7832V0.615234C16.0781 0.276855 15.8013 0 15.4629 0ZM5.90625 14.5195C3.50889 14.5195 1.55859 12.5692 1.55859 10.1719C1.55859 7.77451 3.50889 5.82422 5.90625 5.82422C8.30361 5.82422 10.2539 7.77451 10.2539 10.1719C10.2539 12.5692 8.30361 14.5195 5.90625 14.5195Z" fill="currentColor"/>
</svg>
