<svg width="24" height="24" viewBox="0 0 24 24" fill="none" xmlns="http://www.w3.org/2000/svg">
<path d="M21.3493 15.5372V15.54V19.5C21.3493 19.9907 21.1544 20.4612 20.8075 20.8081C20.4605 21.1551 19.99 21.35 19.4993 21.35H19.3834C12.1537 20.9311 8.06297 17.6832 5.72892 14.0983C3.37964 10.49 2.79211 6.50954 2.64815 4.64176L2.64806 4.64065C2.62868 4.39804 2.65737 4.15399 2.73247 3.92249C2.80757 3.69098 2.92761 3.47657 3.08572 3.29154C3.24383 3.10651 3.43689 2.95449 3.65385 2.8442C3.86646 2.73612 4.09792 2.6702 4.33547 2.65L8.45183 2.65L8.45222 2.65C8.67252 2.64979 8.88782 2.71573 9.07022 2.83929C9.25261 2.96285 9.39371 3.13833 9.47522 3.343L9.47521 3.343L9.47627 3.3456L10.6158 6.14938C10.6159 6.14961 10.616 6.14985 10.6161 6.15009C10.6963 6.34984 10.7162 6.56877 10.6732 6.77973C10.6302 6.99093 10.5261 7.18485 10.3738 7.33737L10.3727 7.33848L8.77517 8.95098L8.62952 9.098L8.66538 9.30182C8.92913 10.8006 9.64688 12.1822 10.7215 13.2597C11.7962 14.3372 13.1759 15.0586 14.674 15.3263L14.8784 15.3628L15.0259 15.2166L16.652 13.6055C16.8066 13.4556 17.0019 13.3543 17.2136 13.3143C17.4258 13.2742 17.6451 13.2975 17.8442 13.3812L17.8442 13.3813L17.8506 13.3838L20.6753 14.5152C20.8758 14.5994 21.0469 14.7412 21.1669 14.9226C21.2874 15.1048 21.3509 15.3188 21.3493 15.5372Z" stroke="currentColor" stroke-width="0.8"/>
</svg>
