<svg width="45" height="25" viewBox="0 0 45 25" fill="none" xmlns="http://www.w3.org/2000/svg">
<path fill-rule="evenodd" clip-rule="evenodd" d="M39.8795 17.5245C39.8795 17.5245 43.4369 21.0163 44.3169 22.6321C44.334 22.6554 44.3474 22.6812 44.3565 22.7086C44.7151 23.3055 44.8031 23.7734 44.6271 24.1189C44.3301 24.6895 43.3247 24.9759 42.9837 25H36.6961C36.2583 25 35.3475 24.8863 34.2387 24.1254C33.3917 23.5373 32.5491 22.5687 31.7329 21.6219C30.5141 20.216 29.4603 18.996 28.3933 18.996C28.2585 18.9957 28.1247 19.0179 27.9973 19.0616C27.1899 19.3152 26.1647 20.4587 26.1647 23.5045C26.1647 24.4578 25.4079 25 24.8777 25H21.9979C21.0167 25 15.9083 24.6589 11.3785 19.9121C5.82785 14.1005 0.842642 2.44228 0.794242 2.33951C0.484042 1.58518 1.13524 1.17413 1.83924 1.17413H8.18845C9.03985 1.17413 9.31705 1.68576 9.51065 2.14492C9.73505 2.67186 10.5667 4.7796 11.9307 7.14754C14.1395 11.0001 15.4969 12.5678 16.5815 12.5678C16.7852 12.5684 16.9856 12.5156 17.1623 12.4147C18.5791 11.6407 18.3151 6.61186 18.2491 5.57548C18.2491 5.37432 18.2469 3.32998 17.5209 2.3417C17.0017 1.63329 16.1173 1.35779 15.5827 1.25721C15.7257 1.05169 16.0293 0.736837 16.4187 0.550988C17.3889 0.0699665 19.1423 0 20.8825 0H21.8483C23.7359 0.0262375 24.2243 0.146493 24.9107 0.319223C26.2923 0.647192 26.3187 1.53708 26.1977 4.56752C26.1625 5.43336 26.1251 6.40852 26.1251 7.55641C26.1251 7.80129 26.1141 8.0746 26.1141 8.35228C26.0723 9.90686 26.0173 11.6582 27.1217 12.3776C27.2649 12.4662 27.4303 12.5132 27.5991 12.5131C27.9819 12.5131 29.1281 12.5131 32.2367 7.21095C33.6007 4.86925 34.6567 2.10775 34.7293 1.90003C34.7909 1.78415 34.9757 1.45837 35.2001 1.32718C35.3597 1.24277 35.5385 1.20061 35.7193 1.20474H43.1883C44.0023 1.20474 44.5545 1.32718 44.6623 1.63329C44.8427 2.12961 44.6271 3.64483 41.2171 8.22765C40.6429 8.99073 40.1391 9.65104 39.6969 10.2283C36.6059 14.2601 36.6059 14.4634 39.8795 17.5245Z" fill="currentColor"/>
</svg>
