<svg width="1073" height="846" viewBox="0 0 1073 846" fill="none" xmlns="http://www.w3.org/2000/svg">
<path d="M585.109 882.542C527.223 798.864 468.488 716.065 406.505 635.32C299.701 496.188 185.728 362.425 87.5602 216.849C85.4817 213.767 51.6297 161.835 45.9326 152.138C31.0549 126.815 58.7542 151.889 64.5278 156.354C183.937 248.677 305.564 337.853 426.164 428.598C465.765 458.396 489.964 477.119 528.957 505.897C543.917 516.937 571.171 541.516 591.137 549.112C592.789 549.74 591.503 545.456 590.837 543.82C582.622 523.643 571.813 503.852 561.706 484.673C517.237 400.296 465.12 320.337 417.462 237.783C416.071 235.373 352.594 136.443 365.682 126.642C369.034 124.132 374.148 127.636 377.929 129.435C417.74 148.373 455.865 173.553 493.082 196.74C584.852 253.914 674.119 314.395 759.476 380.794C794.003 407.652 782.801 399.572 811.998 422.545C813.186 423.481 831.908 440.765 821.645 426.064C769.423 351.273 706.741 284.417 654.952 209.135C623.254 163.059 592.783 115.446 579.048 60.6824C578.997 60.4785 575.553 46.4147 576.648 43.9486C577.249 42.5959 579.166 42.0944 580.644 42.0129C592.351 41.3667 603.705 46.2728 615.187 48.6516C761.774 79.0234 910.13 98.974 1058.68 116.827C1145.04 127.205 1231.99 139.489 1318.72 144.962" stroke="url(#paint0_radial_80_375)" stroke-opacity="0.05" stroke-width="82.185" stroke-linecap="square"/>
<defs>
<radialGradient id="paint0_radial_80_375" cx="0" cy="0" r="1" gradientUnits="userSpaceOnUse" gradientTransform="translate(420.952 204.715) rotate(47.1268) scale(441.3 745.884)">
<stop stop-color="#191919"/>
<stop offset="1" stop-color="white" stop-opacity="0"/>
</radialGradient>
</defs>
</svg>
