<svg width="35" height="35" viewBox="0 0 35 35" fill="none" xmlns="http://www.w3.org/2000/svg">
<path d="M17.1988 0C7.70011 0 0 7.83494 0 17.5C0 27.1651 7.70011 35 17.1988 35C26.6976 35 34.3977 27.1651 34.3977 17.5C34.3977 7.83494 26.6976 0 17.1988 0Z" fill="#40B3E0"/>
<path d="M25.5654 10.0667L22.4934 25.8261C22.4934 25.8261 22.0639 26.919 20.8824 26.3945L13.7935 20.8645L11.2158 19.5968L6.87662 18.1104C6.87662 18.1104 6.2107 17.87 6.14621 17.3455C6.08171 16.8209 6.89812 16.5368 6.89812 16.5368L24.1475 9.6516C24.1475 9.6516 25.5653 9.01778 25.5653 10.067" fill="white"/>
<path d="M13.2498 25.6487C13.2498 25.6487 13.0428 25.629 12.7848 24.7983C12.5273 23.9677 11.2168 19.5963 11.2168 19.5963L21.6353 12.8643C21.6353 12.8643 22.2368 12.4927 22.2153 12.8643C22.2153 12.8643 22.3227 12.9299 22.0003 13.2359C21.6783 13.542 13.8161 20.733 13.8161 20.733" fill="#D2E5F1"/>
<path d="M16.5157 22.9845L13.7119 25.5857C13.7119 25.5857 13.4926 25.755 13.2529 25.6489L13.7899 20.8173" fill="#B5CFE4"/>
</svg>
