<svg width="37" height="37" viewBox="0 0 37 37" fill="none" xmlns="http://www.w3.org/2000/svg">
<path d="M18.5 37C28.7173 37 37 28.7173 37 18.5C37 8.28273 28.7173 0 18.5 0C8.28273 0 0 8.28273 0 18.5C0 28.7173 8.28273 37 18.5 37Z" fill="#039BE5"/>
<path d="M8.46527 18.0992L26.3023 11.2219C27.1302 10.9228 27.8533 11.4238 27.585 12.6757L27.5866 12.6741L24.5495 26.9823C24.3244 27.9967 23.7216 28.2434 22.8783 27.7655L18.2533 24.3569L16.0225 26.506C15.7758 26.7526 15.5677 26.9607 15.0898 26.9607L15.4182 22.254L23.9898 14.5102C24.3629 14.1819 23.9066 13.9969 23.4148 14.3237L12.822 20.993L8.2556 19.5685C7.26431 19.254 7.24273 18.5772 8.46527 18.0992Z" fill="white"/>
</svg>
