<svg width="22" height="25" viewBox="0 0 22 25" fill="none" xmlns="http://www.w3.org/2000/svg">
<path d="M3.20952 9.88879H18.1238C19.339 9.88879 20.3333 10.8031 20.3333 11.9205V20.8094C20.3333 22.4856 18.8419 23.857 17.019 23.857H4.31429C2.49143 23.857 1 22.4856 1 20.8094V11.9205C1 10.8031 1.99429 9.88879 3.20952 9.88879Z" fill="white"/>
<path d="M5.14286 9.88889V6.07936C5.14286 3.27302 7.61476 1 10.6667 1C13.7186 1 16.1905 3.27302 16.1905 6.07936V9.88889M10.6667 16.2381C11.0329 16.2381 11.3842 16.1043 11.6431 15.8662C11.9021 15.628 12.0476 15.305 12.0476 14.9683C12.0476 14.6315 11.9021 14.3085 11.6431 14.0703C11.3842 13.8322 11.0329 13.6984 10.6667 13.6984C10.3004 13.6984 9.94917 13.8322 9.69019 14.0703C9.43121 14.3085 9.28572 14.6315 9.28572 14.9683C9.28572 15.305 9.43121 15.628 9.69019 15.8662C9.94917 16.1043 10.3004 16.2381 10.6667 16.2381ZM10.6667 16.2381V20.0476M3.20952 9.88889H18.1238C19.339 9.88889 20.3333 10.8032 20.3333 11.9206V20.8095C20.3333 22.4857 18.8419 23.8571 17.019 23.8571H4.31429C2.49143 23.8571 1 22.4857 1 20.8095V11.9206C1 10.8032 1.99429 9.88889 3.20952 9.88889Z" stroke="#E9430E" stroke-width="1.4" stroke-miterlimit="10" stroke-linecap="round" stroke-linejoin="round"/>
</svg>
