<svg width="35" height="35" viewBox="0 0 35 35" fill="none" xmlns="http://www.w3.org/2000/svg">
<path d="M9.15648 30.0812L9.71879 30.365C12.0621 31.7839 14.6864 32.446 17.3108 32.446C25.5587 32.446 32.307 25.6352 32.307 17.3109C32.307 13.338 30.7136 9.45958 27.9019 6.6217C25.09 3.78383 21.3409 2.17578 17.3108 2.17578C9.06283 2.17578 2.31441 8.98658 2.40819 17.4056C2.40819 20.2433 3.25173 22.9867 4.65758 25.3514L5.03245 25.9191L3.53295 31.5002L9.15648 30.0812Z" fill="#00E676"/>
<path d="M29.4946 5.1081C26.3079 1.79735 21.9027 0 17.4038 0C7.84385 0 0.158239 7.85132 0.251891 17.4053C0.251891 20.4324 1.09543 23.3649 2.50141 26.0135L0.0644531 35L9.15591 32.6351C11.6865 34.0541 14.4982 34.7163 17.3102 34.7163C26.7765 34.7163 34.4621 26.8648 34.4621 17.311C34.4621 12.6757 32.6813 8.32432 29.4947 5.1081H29.4946ZM17.4038 31.7839C14.8732 31.7839 12.3426 31.1219 10.1869 29.7975L9.62458 29.5137L4.18848 30.9326L5.59433 25.5408L5.21946 24.9731C1.09543 18.257 3.06372 9.36485 9.81201 5.20262C16.5603 1.04052 25.2769 3.02705 29.4009 9.83785C33.5248 16.6486 31.5565 25.446 24.8084 29.6082C22.6525 31.0271 20.0282 31.7838 17.4038 31.7838V31.7839ZM25.6518 21.284L24.6208 20.811C24.6208 20.811 23.1213 20.1488 22.184 19.6758C22.0902 19.6758 21.9965 19.5812 21.9027 19.5812C21.6215 19.5812 21.4341 19.6758 21.2466 19.7705C21.2466 19.7705 21.153 19.865 19.8408 21.3785C19.747 21.5677 19.5596 21.6624 19.3721 21.6624H19.2783C19.1847 21.6624 18.9973 21.5677 18.9035 21.4732L18.4348 21.284C17.4038 20.811 16.4667 20.2434 15.7168 19.4867C15.5293 19.2975 15.2481 19.1083 15.0607 18.9191C14.4046 18.257 13.7485 17.5001 13.2799 16.6488L13.1862 16.4596C13.0925 16.365 13.0925 16.2704 12.9987 16.0813C12.9987 15.8921 12.9987 15.7029 13.0925 15.6083C13.0925 15.6083 13.4674 15.1353 13.7485 14.8516C13.936 14.6623 14.0297 14.3786 14.2171 14.1894C14.4046 13.9056 14.4984 13.5272 14.4046 13.2434C14.3109 12.7704 13.1862 10.2163 12.9051 9.64881C12.7175 9.36498 12.5302 9.27046 12.249 9.17581H11.218C11.0304 9.17581 10.8431 9.27046 10.6555 9.27046L10.5618 9.36498C10.3743 9.45964 10.1869 9.64881 9.99945 9.74333C9.81201 9.93264 9.71823 10.1217 9.53079 10.311C8.87469 11.1623 8.49981 12.2029 8.49981 13.2434C8.49981 14.0001 8.68725 14.7569 8.96848 15.4191L9.06226 15.7029C9.9058 17.5001 11.0304 19.1083 12.5302 20.5272L12.9051 20.9055C13.1862 21.1894 13.4674 21.3785 13.6548 21.6622C15.6231 23.3651 17.8725 24.5948 20.4031 25.2569C20.6843 25.3515 21.0592 25.3515 21.3404 25.4461H22.2776C22.7463 25.4461 23.3086 25.2569 23.6836 25.0678C23.9647 24.8786 24.1521 24.8786 24.3396 24.6894L24.5271 24.5001C24.7146 24.3109 24.902 24.2164 25.0895 24.0272C25.2769 23.8381 25.4643 23.6489 25.5581 23.4596C25.7455 23.0812 25.8392 22.6082 25.933 22.1354V21.4732C25.933 21.4732 25.8392 21.3785 25.6518 21.284Z" fill="#F9F9F9"/>
</svg>
