<svg width="19" height="25" viewBox="0 0 19 25" fill="none" xmlns="http://www.w3.org/2000/svg">
<path d="M1 1H18V20L1 20.5V1Z" fill="white"/>
<path d="M1 22.0833V5.08889C1 3.65778 1 2.94222 1.26471 2.39533C1.49786 1.91361 1.86821 1.52389 2.326 1.27856C2.84571 1 3.52571 1 4.88571 1H16.0571C16.7371 1 17.0771 1 17.3382 1.13928C17.5662 1.262 17.7515 1.45744 17.8676 1.69767C18 1.97111 18 2.32889 18 3.04444V18.1222C18 18.8378 18 19.1956 17.8664 19.469C17.7506 19.709 17.5658 19.9045 17.3382 20.0274C17.0771 20.1667 16.7371 20.1667 16.0596 20.1667H3.73214C3.00753 20.1667 2.3126 20.4696 1.80023 21.0087C1.28785 21.5479 1 22.2792 1 23.0417C1 23.5707 1.408 24 1.91071 24H14.8453C15.5241 24 15.8653 24 16.1239 23.8607C16.3519 23.738 16.5373 23.5426 16.6534 23.3023C16.7857 23.0289 16.7857 22.6711 16.7857 21.9556V20.1667" stroke="#E9430E" stroke-width="1.4" stroke-linecap="round" stroke-linejoin="round"/>
</svg>
