<svg width="35" height="35" viewBox="0 0 35 35" fill="none" xmlns="http://www.w3.org/2000/svg">
<g clip-path="url(#clip0)">
<path d="M29.925 5.02979C26.6 1.81562 22.225 0 17.5656 0C4.19271 0 -4.20438 14.4885 2.47333 26.0138L0 35L9.23854 32.5908C13.2635 34.7652 16.5608 34.5727 17.5744 34.701C33.0808 34.701 40.7998 15.941 29.9031 5.08667L29.925 5.02979Z" fill="#ECEFF1"/>
<path d="M17.5977 31.7199L17.589 31.7185H17.5656C12.9252 31.7185 9.96041 29.5207 9.66875 29.3939L4.2 30.8157L5.66562 25.5001L5.31708 24.9532C3.87333 22.6549 3.10625 20.008 3.10625 17.2824C3.10625 4.45928 18.776 -1.95301 27.844 7.11053C36.89 16.0793 30.539 31.7199 17.5977 31.7199Z" fill="#4CAF50"/>
<path d="M25.531 20.8642L25.5179 20.9735C25.079 20.7548 22.941 19.7092 22.5429 19.5648C21.649 19.2338 21.9013 19.5123 20.1848 21.4781C19.9296 21.7625 19.6758 21.7844 19.2427 21.5875C18.8052 21.3688 17.4008 20.9094 15.7383 19.4219C14.4433 18.2625 13.5742 16.8406 13.3175 16.4031C12.8902 15.6652 13.7842 15.5602 14.5979 14.0202C14.7438 13.714 14.6694 13.4733 14.5615 13.256C14.4521 13.0373 13.5815 10.8935 13.2169 10.039C12.8669 9.1873 12.5067 9.29522 12.2369 9.29522C11.3969 9.2223 10.7829 9.23397 10.2419 9.79688C7.88813 12.384 8.48167 15.0527 10.4956 17.8906C14.4535 23.0706 16.5623 24.0244 20.4181 25.3485C21.4594 25.6796 22.4088 25.6329 23.1598 25.525C23.9969 25.3923 25.7367 24.4735 26.0998 23.4454C26.4717 22.4173 26.4717 21.5642 26.3623 21.3673C26.2544 21.1704 25.9685 21.061 25.531 20.8642Z" fill="#FAFAFA"/>
</g>
<defs>
<clipPath id="clip0">
<rect width="35" height="35" fill="white"/>
</clipPath>
</defs>
</svg>
