<svg width="188" height="41" viewBox="0 0 188 41" fill="none" xmlns="http://www.w3.org/2000/svg">
<path d="M25.6463 38.2859C33.5692 38.2859 37.9805 38.2859 40.8542 35.4014C43.7346 32.5168 43.7346 28.1059 43.7346 20.1718C43.7346 12.2376 43.0632 7.81996 40.1828 4.94214C19.355 4.94214 10.4385 16.2114 10.4385 34.729C13.3122 37.6135 17.7168 38.2859 25.6463 38.2859Z" fill="#EC9662"/>
<path d="M40.6902 4.94252C37.8165 2.0647 33.4052 2.0647 25.4823 2.0647C17.5595 2.0647 13.1482 2.0647 10.2745 4.94925C7.39404 7.82035 7.39404 12.2379 7.39404 20.1721C7.39404 28.1063 7.39404 32.5239 10.2678 35.4018C13.1012 38.246 17.64 38.3535 24.9989 37.9165C32.304 37.4324 35.4598 36.4641 38.3603 33.5998C41.2139 30.695 42.4628 27.2591 43.0872 19.8023C43.6512 12.2985 43.5169 7.78673 40.6902 4.94252Z" fill="#E5502C"/>
<path d="M61.1035 15.3977H56.2356V17.9864H60.6603V21.4156H56.2356V27.5276H52.207V11.9685H61.1035V15.3977Z" fill="#333333"/>
<path d="M68.3069 11.9685V24.0984H73.1546V27.5276H64.2783V11.9685H68.3069Z" fill="#333333"/>
<path d="M79.6726 11.9685V27.5276H75.644V11.9685H79.6726Z" fill="#333333"/>
<path d="M90.0033 11.9685C91.1649 11.9685 92.6622 12.1568 93.8036 13.3469C94.6899 14.2546 95.133 15.6129 95.133 16.8433C95.133 18.1747 94.6697 19.3379 93.8976 20.0842C93.2933 20.6692 92.4742 21.0189 91.7557 21.1601L96.6236 27.5276H91.6147L87.7473 21.5568V27.5276H83.7188V11.9685H90.0033ZM87.7406 18.9479H88.5128C89.117 18.9479 89.9832 18.7865 90.4666 18.3159C90.7687 18.0133 90.9769 17.5023 90.9769 17.0114C90.9769 16.5475 90.7889 16.0297 90.4397 15.707C90.0637 15.3372 89.3923 15.1018 88.506 15.1018H87.7339V18.9479H87.7406Z" fill="#333333"/>
<path d="M104.718 15.3977V27.5276H100.689V15.3977H97.3789V11.9685H108.028V15.3977H104.718Z" fill="#333333"/>
<path d="M117.669 22.8687C118.528 23.6823 119.837 24.4555 121.234 24.4555C122.046 24.4555 122.536 24.2 122.798 23.9176C123.033 23.6823 123.194 23.3326 123.194 22.9359C123.194 22.6334 123.08 22.2837 122.751 22.0013C122.355 21.6517 121.751 21.4903 120.75 21.1877L119.703 20.8583C119.052 20.6498 118.098 20.3002 117.467 19.6009C116.675 18.7402 116.581 17.6375 116.581 16.8508C116.581 14.9412 117.326 13.7713 118.004 13.0922C118.797 12.2987 120.099 11.6196 121.986 11.6196C123.523 11.6196 125.316 12.1105 126.787 12.877L125.182 16.0238C123.973 15.069 123.06 14.9749 122.523 14.9749C122.127 14.9749 121.59 15.069 121.194 15.4388C120.959 15.6741 120.797 15.9296 120.797 16.2793C120.797 16.5617 120.844 16.7701 121.006 16.9786C121.12 17.1198 121.402 17.3955 122.355 17.6779L123.591 18.0477C124.571 18.3502 125.591 18.6999 126.411 19.5874C127.203 20.4279 127.411 21.2886 127.411 22.3644C127.411 23.7899 127.062 25.1615 125.941 26.2844C124.611 27.6158 123.006 27.8713 121.355 27.8713C120.374 27.8713 119.441 27.7771 118.3 27.3603C118.045 27.2661 117.064 26.8963 115.95 26.1231L117.669 22.8687Z" fill="#333333"/>
<path d="M136.425 15.3977V27.5276H132.397V15.3977H129.086V11.9685H139.735V15.3977H136.425Z" fill="#333333"/>
<path d="M146.79 20.0641L141.177 11.9685H145.998L148.932 16.218L151.752 11.9685H156.646L150.845 20.0641V27.5276H146.79V20.0641Z" fill="#333333"/>
<path d="M162.824 11.9685V24.0984H167.672V27.5276H158.795V11.9685H162.824Z" fill="#333333"/>
<path d="M178.978 15.3977H174.177V17.9864H178.723V21.4156H174.177V24.0984H178.978V27.5276H170.148V11.9685H178.978V15.3977Z" fill="#333333"/>
<path d="M22.7489 15.9355H19.3112C19.0158 15.9355 18.774 16.1776 18.774 16.4734V17.798C18.774 18.0939 19.0158 18.336 19.3112 18.336H22.3393C22.6348 18.336 22.8765 18.578 22.8765 18.8739V20.9784C22.8765 21.2743 22.6348 21.5164 22.3393 21.5164H19.3112C19.0158 21.5164 18.774 21.7584 18.774 22.0543V26.6467C18.774 26.9425 18.5323 27.1846 18.2369 27.1846H15.5713C15.2759 27.1846 15.0342 26.9425 15.0342 26.6467V13.293C15.0342 12.9972 15.2759 12.7551 15.5713 12.7551H22.7489C23.0443 12.7551 23.286 12.9972 23.286 13.293V15.3976C23.286 15.7002 23.0443 15.9355 22.7489 15.9355Z" fill="white"/>
<path d="M27.0071 23.4462C27.1615 23.1504 27.5442 23.0764 27.8128 23.2781C28.5782 23.8564 29.5719 24.3271 30.6194 24.3271C31.3781 24.3271 31.8279 24.0917 32.0629 23.8295C32.2778 23.6143 32.4322 23.2916 32.4322 22.9218C32.4322 22.6394 32.3248 22.3166 32.0227 22.0544C31.6534 21.7316 31.0961 21.577 30.1628 21.2946L29.1892 20.992C28.5849 20.797 27.6987 20.4743 27.1145 19.8221C26.3827 19.0219 26.2954 18.0066 26.2954 17.2737C26.2954 15.4986 26.9869 14.4228 27.6114 13.7907C28.3432 13.0578 29.5518 12.4258 31.3042 12.4258C32.5531 12.4258 33.9899 12.7754 35.2388 13.3402C35.5208 13.468 35.6417 13.8042 35.5007 14.0799L34.5405 15.9625C34.3928 16.245 34.0369 16.3324 33.7684 16.1643C32.8888 15.6062 32.2174 15.5457 31.8011 15.5457C31.4318 15.5457 30.9349 15.6331 30.5724 15.976C30.3575 16.1912 30.2031 16.4332 30.2031 16.756C30.2031 17.0182 30.2434 17.2132 30.3978 17.4015C30.5052 17.5292 30.7671 17.7914 31.6534 18.047L32.7948 18.3899C33.7012 18.6723 34.6547 18.995 35.4067 19.8153C36.1385 20.5953 36.3332 21.3955 36.3332 22.3906C36.3332 23.7085 36.0109 24.986 34.9702 26.0215C33.7415 27.252 32.2509 27.494 30.7201 27.494C29.8137 27.494 28.9475 27.4066 27.8934 27.0166C27.6919 26.9427 26.9869 26.6737 26.1342 26.1492C25.8925 26.0013 25.8052 25.692 25.9395 25.4365L27.0071 23.4462Z" fill="white"/>
</svg>
