<svg width="113" height="39" viewBox="0 0 113 39" fill="none" xmlns="http://www.w3.org/2000/svg">
<path d="M45.9556 12.8243H48.3914C49.7446 12.8243 50.7798 13.1085 51.497 13.6768C52.309 14.2993 52.7149 15.233 52.7149 16.478C52.7149 17.6417 52.2684 18.5281 51.3753 19.137C52.2413 19.3536 52.8841 19.7934 53.3036 20.4564C53.7366 21.106 53.9531 21.8029 53.9531 22.5472C53.9531 23.1561 53.8178 23.7177 53.5472 24.2319C53.2901 24.7461 52.9653 25.1589 52.5729 25.4701C51.815 26.0655 50.7325 26.3632 49.3251 26.3632H45.9556V12.8243ZM47.4577 14.2452V18.7717H48.5944C48.7974 18.7717 48.9936 18.7649 49.183 18.7514C49.3725 18.7243 49.5958 18.6702 49.8529 18.589C50.1235 18.4943 50.3536 18.3725 50.543 18.2236C50.746 18.0748 50.9152 17.8515 51.0505 17.5538C51.1858 17.2561 51.2535 16.911 51.2535 16.5186C51.2535 16.0991 51.1723 15.7405 51.0099 15.4428C50.8475 15.1315 50.6648 14.9015 50.4618 14.7526C50.2588 14.6038 50.0153 14.4887 49.7311 14.4075C49.4469 14.3264 49.2304 14.279 49.0815 14.2655C48.9327 14.2519 48.7838 14.2452 48.635 14.2452H47.4577ZM47.4577 20.1114V24.9424H49.183C50.2791 24.9424 51.0708 24.7529 51.5579 24.374C52.1534 23.941 52.4511 23.3185 52.4511 22.5066C52.4511 21.5999 52.0654 20.9368 51.2941 20.5173C50.8069 20.2467 50.0423 20.1114 49.0004 20.1114H47.4577Z" fill="#FF8C20"/>
<path d="M55.5715 26.3632H54.0288L56.2819 12.0732L61.4783 23.5012L66.7761 12.0529L68.8871 26.3632H67.3445L66.0657 16.9448L61.458 26.9316L56.9111 16.9448L55.5715 26.3632Z" fill="#FF8C20"/>
<path d="M76.5901 12.8243V14.2452H71.069V18.2642H76.4278V19.6851H71.069V24.9424H76.5901V26.3632H69.5669V12.8243H76.5901ZM88.8995 13.9407V15.8081C88.3582 15.2668 87.7695 14.8473 87.1335 14.5496C86.3622 14.1978 85.5841 14.0219 84.7992 14.0219C83.243 14.0219 81.9439 14.5699 80.9019 15.666C79.8735 16.7486 79.3593 18.0815 79.3593 19.6648C79.3593 21.3699 79.9209 22.7163 81.044 23.7042C82.1807 24.692 83.4392 25.1859 84.8195 25.1859C85.6856 25.1859 86.5246 24.9762 87.3365 24.5567C87.9048 24.2725 88.4258 23.8936 88.8995 23.42V25.2874C87.668 26.167 86.308 26.6068 84.8195 26.6068C82.8167 26.6068 81.1455 25.937 79.8058 24.5973C78.4797 23.2576 77.8166 21.6067 77.8166 19.6445C77.8166 17.6282 78.4864 15.9502 79.8261 14.6105C81.1794 13.2708 82.8709 12.601 84.9007 12.601C86.3892 12.601 87.7222 13.0476 88.8995 13.9407ZM97.4752 14.2452H94.1868V26.3632H92.6848V14.2452H89.3965V12.8243H97.4752V14.2452ZM105.712 12.8243V14.2452H100.191V18.2642H105.549V19.6851H100.191V24.9424H105.712V26.3632H98.6886V12.8243H105.712Z" fill="#FF8C20"/>
<path d="M108.361 12.4259H110.133L109.817 22.7647H108.656L108.361 12.4259ZM109.247 27.3011C108.937 27.3011 108.67 27.1956 108.445 26.9846C108.234 26.7596 108.129 26.4993 108.129 26.204C108.129 25.8945 108.234 25.6413 108.445 25.4444C108.656 25.2334 108.923 25.1279 109.247 25.1279C109.556 25.1279 109.817 25.2334 110.028 25.4444C110.239 25.6413 110.344 25.8945 110.344 26.204C110.344 26.4993 110.239 26.7596 110.028 26.9846C109.817 27.1956 109.556 27.3011 109.247 27.3011Z" fill="#E5502C"/>
<path d="M19.4098 38.471C27.8368 38.471 32.5287 38.471 35.5853 35.4073C38.6489 32.3437 38.6489 27.6588 38.6489 19.2319C38.6489 10.805 37.9348 6.11302 34.8711 3.05647C12.7183 3.05647 3.23438 15.0256 3.23438 34.6932C6.29093 37.7569 10.9757 38.471 19.4098 38.471Z" fill="#FF8C20"/>
<path d="M35.4146 3.05655C32.358 -3.40532e-07 27.6661 0 19.2391 0C10.8122 0 6.12024 0 3.06369 3.06369C0 6.1131 0 10.805 0 19.232C0 27.6589 -3.40532e-07 32.3509 3.05655 35.4074C6.07025 38.4283 10.8979 38.5425 18.7249 38.0783C26.4949 37.5642 29.8514 36.5358 32.9365 33.4935C35.9716 30.4084 37.2999 26.7591 37.9641 18.8392C38.564 10.8693 38.4211 6.07739 35.4146 3.05655Z" fill="#E5502C"/>
<circle cx="19.1766" cy="19.1746" r="12.7746" fill="white" stroke="white" stroke-width="1.41155"/>
<path d="M29.4803 18.8925C30.3273 18.8219 30.7291 18.3255 30.6159 17.6331C30.3249 15.8542 29.8332 14.1638 28.6267 12.6739C28.2301 12.0951 27.4222 12.0331 26.8875 12.4874L21.2929 17.6331C20.5169 18.469 20.9404 19.0337 22.2814 18.9698C22.2814 18.9698 24.4752 18.9698 25.8809 18.9698C26.5975 18.9698 26.9995 18.9858 27.7159 18.9698C28.4054 18.9544 28.6334 18.9631 29.4803 18.8925Z" fill="#E9430E"/>
<path d="M26.9717 26.0035C27.6508 26.5145 28.2811 26.4114 28.6574 25.8192C29.6241 24.2978 30.3821 22.7089 30.4731 20.7939C30.5623 20.0979 30.0005 19.514 29.2991 19.4972L21.6988 19.6147C20.5633 19.7222 20.5036 20.4255 21.547 21.2702C21.547 21.2702 23.1845 22.7302 24.2337 23.6657C24.7686 24.1426 25.0579 24.4221 25.6033 24.8869C26.1282 25.3343 26.2926 25.4925 26.9717 26.0035Z" fill="#E9430E"/>
<path d="M26.0457 11.6744C26.5716 11.0068 26.4825 10.3744 25.8987 9.98508C24.3991 8.985 22.8273 8.19206 20.9148 8.05869C20.221 7.95418 19.6248 8.50288 19.5925 9.20376L19.5419 16.8048C19.6243 17.9424 20.3261 18.0176 21.1937 16.9931C21.1937 16.9931 22.6895 15.3884 23.648 14.3601C24.1366 13.8359 24.4223 13.5528 24.8992 13.0178C25.3581 12.5029 25.5199 12.3421 26.0457 11.6744Z" fill="#E9430E"/>
<path d="M12.173 11.9394C11.6124 11.3007 11.6677 10.6644 12.2299 10.2447C13.6743 9.16623 15.2016 8.2908 17.1044 8.05589C17.7916 7.91462 18.4161 8.43084 18.4857 9.12901L18.9405 16.7166C18.9188 17.857 18.222 17.9694 17.3011 16.9925C17.3011 16.9925 15.722 15.4696 14.7102 14.4938C14.1944 13.9963 13.894 13.7288 13.3894 13.2199C12.9037 12.7302 12.7336 12.5782 12.173 11.9394Z" fill="#FF8C20"/>
<path d="M8.98017 18.9467C8.13184 18.8956 7.71863 18.4086 7.81591 17.7138C8.06582 15.9286 8.51841 14.2273 9.69024 12.71C10.0734 12.1222 10.8797 12.0417 11.4247 12.4835L17.1364 17.4989C17.9315 18.3167 17.5211 18.891 16.179 18.858C16.179 18.858 13.9858 18.9086 12.5805 18.941C11.864 18.9575 11.4625 18.9827 10.7459 18.9832C10.0562 18.9838 9.82851 18.9977 8.98017 18.9467Z" fill="#FF8C20"/>
<path d="M11.6438 26.0077C10.9853 26.5451 10.3515 26.4669 9.95212 25.8901C8.92618 24.408 8.10608 22.8502 7.93956 20.9403C7.82303 20.2484 8.36131 19.6428 9.06152 19.5983L16.6605 19.4159C17.7994 19.4785 17.8867 20.1789 16.8775 21.0641C16.8775 21.0641 15.2989 22.5876 14.2874 23.5637C13.7718 24.0614 13.4937 24.352 12.967 24.838C12.4602 25.3058 12.3022 25.4703 11.6438 26.0077Z" fill="#FF8C20"/>
<path d="M18.6279 29.3185C18.5462 30.1644 18.0446 30.5597 17.3537 30.4374C15.5788 30.1231 13.8949 29.6093 12.421 28.3833C11.8475 27.9791 11.7961 27.1705 12.2573 26.6418L17.4761 21.1152C18.3221 20.3503 18.8811 20.7812 18.7996 22.1212C18.7996 22.1212 18.7708 24.3148 18.7524 25.7203C18.743 26.4369 18.7537 26.839 18.7283 27.5552C18.7039 28.2445 18.7096 28.4726 18.6279 29.3185Z" fill="#E9430E"/>
<path d="M19.4434 29.3185C19.5251 30.1644 20.0267 30.5597 20.7176 30.4374C22.4925 30.1231 24.1763 29.6093 25.6503 28.3833C26.2238 27.9791 26.2752 27.1705 25.814 26.6418L20.5952 21.1152C19.7492 20.3503 19.1902 20.7812 19.2716 22.1212C19.2716 22.1212 19.3004 24.3148 19.3189 25.7203C19.3283 26.4369 19.3176 26.839 19.343 27.5552C19.3674 28.2445 19.3617 28.4726 19.4434 29.3185Z" fill="#E9430E"/>
<ellipse cx="0.435343" cy="0.828461" rx="0.435343" ry="0.828461" transform="matrix(0.75498 0.655748 -0.334167 0.942514 21.0371 13.0339)" fill="white"/>
<path d="M19.6606 17.9667C19.488 18.0905 19.5325 17.8744 19.5325 17.8744L19.6606 17.9667C19.7228 17.9221 19.8131 17.8334 19.9438 17.6746C20.4373 17.0751 20.7554 15.5161 20.7554 15.5161L20.7895 15.2111C20.7895 15.2111 20.8075 14.8268 20.8075 14.3441C20.8075 13.8615 21.2212 14.551 21.2212 14.551C21.2212 14.551 21.088 14.7745 21.0518 14.8268C20.9797 14.9309 20.7554 15.5161 20.7554 15.5161C20.7554 15.5161 20.459 17.3085 20.2896 17.7221C20.1202 18.1357 20.2728 18.4073 20.2728 18.4073L19.6606 17.9667Z" fill="white"/>
<path d="M20.7554 15.5161C20.7554 15.5161 20.4373 17.0751 19.9438 17.6746C19.4502 18.2741 19.5325 17.8744 19.5325 17.8744L20.2728 18.4073C20.2728 18.4073 20.1202 18.1357 20.2896 17.7221C20.459 17.3085 20.7554 15.5161 20.7554 15.5161ZM20.7554 15.5161L20.7895 15.2111C20.7895 15.2111 20.8075 14.8268 20.8075 14.3441C20.8075 13.8615 21.2212 14.551 21.2212 14.551C21.2212 14.551 21.088 14.7745 21.0518 14.8268C20.9797 14.9309 20.7554 15.5161 20.7554 15.5161Z" stroke="white" stroke-width="0.204544"/>
<ellipse cx="0.435342" cy="0.828461" rx="0.435342" ry="0.828461" transform="matrix(0.999933 -0.0116169 0.37655 0.926396 16.2793 13.4802)" fill="white"/>
<path d="M18.5298 18.0808C18.4831 18.2879 18.3728 18.097 18.3728 18.097L18.5298 18.0808C18.5466 18.0061 18.5552 17.8798 18.5473 17.6743C18.5178 16.8984 17.7196 15.522 17.7196 15.522L17.5424 15.2713C17.5424 15.2713 17.3005 14.9722 16.9798 14.6115C16.6591 14.2508 17.4264 14.4912 17.4264 14.4912C17.4264 14.4912 17.4754 14.7467 17.4831 14.8098C17.4984 14.9356 17.7196 15.522 17.7196 15.522C17.7196 15.522 18.6891 17.0584 18.8373 17.48C18.9856 17.9017 19.2801 18.0033 19.2801 18.0033L18.5298 18.0808Z" fill="white"/>
<path d="M17.7196 15.522C17.7196 15.522 18.5178 16.8984 18.5473 17.6743C18.5769 18.4503 18.3728 18.097 18.3728 18.097L19.2801 18.0033C19.2801 18.0033 18.9856 17.9017 18.8373 17.48C18.6891 17.0584 17.7196 15.522 17.7196 15.522ZM17.7196 15.522L17.5424 15.2713C17.5424 15.2713 17.3005 14.9722 16.9798 14.6115C16.6591 14.2508 17.4264 14.4912 17.4264 14.4912C17.4264 14.4912 17.4754 14.7467 17.4831 14.8098C17.4984 14.9356 17.7196 15.522 17.7196 15.522Z" stroke="white" stroke-width="0.204544"/>
<ellipse cx="0.435343" cy="0.828461" rx="0.435343" ry="0.828461" transform="matrix(0.631326 -0.775518 0.952696 0.303925 12.7744 17.5423)" fill="white"/>
<path d="M17.7487 18.7608C17.878 18.9293 17.6607 18.8918 17.6607 18.8918L17.7487 18.7608C17.7022 18.7001 17.6107 18.6127 17.4478 18.4871C16.8329 18.0129 15.2645 17.7448 15.2645 17.7448L14.9585 17.7204C14.9585 17.7204 14.5738 17.7147 14.0915 17.7301C13.6091 17.7455 14.2851 17.31 14.2851 17.31C14.2851 17.31 14.5127 17.436 14.5661 17.4705C14.6725 17.5393 15.2645 17.7448 15.2645 17.7448C15.2645 17.7448 17.0654 17.9838 17.4842 18.1399C17.9031 18.296 18.1697 18.1349 18.1697 18.1349L17.7487 18.7608Z" fill="white"/>
<path d="M15.2645 17.7448C15.2645 17.7448 16.8329 18.0129 17.4478 18.4871C18.0628 18.9613 17.6607 18.8918 17.6607 18.8918L18.1697 18.1349C18.1697 18.1349 17.9031 18.296 17.4842 18.1399C17.0654 17.9838 15.2645 17.7448 15.2645 17.7448ZM15.2645 17.7448L14.9585 17.7204C14.9585 17.7204 14.5738 17.7147 14.0915 17.7301C13.6091 17.7455 14.2851 17.31 14.2851 17.31C14.2851 17.31 14.5127 17.436 14.5661 17.4705C14.6725 17.5393 15.2645 17.7448 15.2645 17.7448Z" stroke="white" stroke-width="0.204544"/>
<ellipse cx="0.435342" cy="0.828461" rx="0.435342" ry="0.828461" transform="matrix(0.0469116 -0.998899 0.946842 -0.321699 13.1611 22.2529)" fill="white"/>
<path d="M17.8837 20.2768C18.0878 20.3356 17.8907 20.4345 17.8907 20.4345L17.8837 20.2768C17.8101 20.2557 17.6846 20.2397 17.479 20.2355C16.7026 20.2196 15.2819 20.9359 15.2819 20.9359L15.0213 21.0981C15.0213 21.0981 14.7085 21.3221 14.3297 21.6212C13.9509 21.9202 14.2357 21.1682 14.2357 21.1682C14.2357 21.1682 14.4937 21.1343 14.5571 21.1303C14.6836 21.1224 15.2819 20.9359 15.2819 20.9359C15.2819 20.9359 16.8724 20.058 17.302 19.9347C17.7316 19.8113 17.8502 19.5232 17.8502 19.5232L17.8837 20.2768Z" fill="white"/>
<path d="M15.2819 20.9359C15.2819 20.9359 16.7026 20.2196 17.479 20.2355C18.2553 20.2514 17.8907 20.4345 17.8907 20.4345L17.8502 19.5232C17.8502 19.5232 17.7316 19.8113 17.302 19.9347C16.8724 20.058 15.2819 20.9359 15.2819 20.9359ZM15.2819 20.9359L15.0213 21.0981C15.0213 21.0981 14.7085 21.3221 14.3297 21.6212C13.9509 21.9202 14.2357 21.1682 14.2357 21.1682C14.2357 21.1682 14.4937 21.1343 14.5571 21.1303C14.6836 21.1224 15.2819 20.9359 15.2819 20.9359Z" stroke="white" stroke-width="0.204544"/>
<ellipse cx="0.435342" cy="0.828461" rx="0.435342" ry="0.828461" transform="matrix(-0.72093 -0.693008 0.381299 -0.924452 17.2197 25.7844)" fill="white"/>
<path d="M18.8435 20.9269C19.0221 20.8119 18.9668 21.0254 18.9668 21.0254L18.8435 20.9269C18.7792 20.9683 18.6845 21.0523 18.546 21.2043C18.0228 21.7781 17.6265 23.319 17.6265 23.319L17.577 23.622C17.577 23.622 17.5397 24.0049 17.5153 24.4869C17.4909 24.9689 17.1125 24.2594 17.1125 24.2594C17.1125 24.2594 17.2568 24.0429 17.2956 23.9926C17.3729 23.8922 17.6265 23.319 17.6265 23.319C17.6265 23.319 18.0129 21.5439 18.203 21.1394C18.393 20.7348 18.2543 20.4559 18.2543 20.4559L18.8435 20.9269Z" fill="white"/>
<path d="M17.6265 23.319C17.6265 23.319 18.0228 21.7781 18.546 21.2043C19.0691 20.6304 18.9668 21.0254 18.9668 21.0254L18.2543 20.4559C18.2543 20.4559 18.393 20.7348 18.203 21.1394C18.0129 21.5439 17.6265 23.319 17.6265 23.319ZM17.6265 23.319L17.577 23.622C17.577 23.622 17.5397 24.0049 17.5153 24.4869C17.4909 24.9689 17.1125 24.2594 17.1125 24.2594C17.1125 24.2594 17.2568 24.0429 17.2956 23.9926C17.3729 23.8922 17.6265 23.319 17.6265 23.319Z" stroke="white" stroke-width="0.204544"/>
<ellipse cx="0.435342" cy="0.828461" rx="0.435342" ry="0.828461" transform="matrix(0.72093 -0.693008 -0.381299 -0.924452 20.8838 25.22)" fill="white"/>
<path d="M19.26 20.3625C19.0814 20.2475 19.1367 20.461 19.1367 20.461L19.26 20.3625C19.3243 20.4039 19.419 20.4879 19.5576 20.6398C20.0807 21.2137 20.4771 22.7546 20.4771 22.7546L20.5265 23.0576C20.5265 23.0576 20.5639 23.4405 20.5882 23.9225C20.6126 24.4045 20.991 23.695 20.991 23.695C20.991 23.695 20.8467 23.4785 20.8079 23.4281C20.7306 23.3277 20.4771 22.7546 20.4771 22.7546C20.4771 22.7546 20.0906 20.9795 19.9005 20.575C19.7105 20.1704 19.8492 19.8915 19.8492 19.8915L19.26 20.3625Z" fill="white"/>
<path d="M20.4771 22.7546C20.4771 22.7546 20.0807 21.2137 19.5576 20.6398C19.0344 20.066 19.1367 20.461 19.1367 20.461L19.8492 19.8915C19.8492 19.8915 19.7105 20.1704 19.9005 20.575C20.0906 20.9795 20.4771 22.7546 20.4771 22.7546ZM20.4771 22.7546L20.5265 23.0576C20.5265 23.0576 20.5639 23.4405 20.5882 23.9225C20.6126 24.4045 20.991 23.695 20.991 23.695C20.991 23.695 20.8467 23.4785 20.8079 23.4281C20.7306 23.3277 20.4771 22.7546 20.4771 22.7546Z" stroke="white" stroke-width="0.204544"/>
<ellipse cx="0.435342" cy="0.828461" rx="0.435342" ry="0.828461" transform="matrix(-0.112748 -0.993624 -0.966013 -0.258495 25.6592 22.1347)" fill="white"/>
<path d="M20.8151 20.475C20.6153 20.5471 20.8185 20.6328 20.8185 20.6328L20.8151 20.475C20.887 20.449 21.0113 20.4248 21.2161 20.407C21.9897 20.3399 23.4547 20.9608 23.4547 20.9608L23.7254 21.1055C23.7254 21.1055 24.0523 21.3084 24.45 21.5818C24.8478 21.8552 24.5139 21.1237 24.5139 21.1237C24.5139 21.1237 24.2543 21.1068 24.1907 21.1071C24.064 21.1075 23.4547 20.9608 23.4547 20.9608C23.4547 20.9608 21.8097 20.1899 21.3729 20.0952C20.9361 20.0005 20.7987 19.7209 20.7987 19.7209L20.8151 20.475Z" fill="white"/>
<path d="M23.4547 20.9608C23.4547 20.9608 21.9897 20.3399 21.2161 20.407C20.4425 20.4742 20.8185 20.6328 20.8185 20.6328L20.7987 19.7209C20.7987 19.7209 20.9361 20.0005 21.3729 20.0952C21.8097 20.1899 23.4547 20.9608 23.4547 20.9608ZM23.4547 20.9608L23.7254 21.1055C23.7254 21.1055 24.0523 21.3084 24.45 21.5818C24.8478 21.8552 24.5139 21.1237 24.5139 21.1237C24.5139 21.1237 24.2543 21.1068 24.1907 21.1071C24.064 21.1075 23.4547 20.9608 23.4547 20.9608Z" stroke="white" stroke-width="0.204544"/>
<ellipse cx="0.435342" cy="0.828461" rx="0.435342" ry="0.828461" transform="matrix(-0.695036 -0.718975 -0.923374 0.383901 25.917 17.3708)" fill="white"/>
<path d="M21.0646 19.0073C20.9502 19.1862 21.1636 19.1303 21.1636 19.1303L21.0646 19.0073C21.1059 18.9428 21.1896 18.8479 21.3412 18.7089C21.9135 18.1842 23.4534 17.7835 23.4534 17.7835L23.7562 17.7331C23.7562 17.7331 24.139 17.6947 24.6209 17.669C25.1029 17.6433 24.3923 17.2669 24.3923 17.2669C24.3923 17.2669 24.1762 17.4118 24.126 17.4507C24.0258 17.5283 23.4534 17.7835 23.4534 17.7835C23.4534 17.7835 21.6794 18.175 21.2754 18.3661C20.8713 18.5573 20.592 18.4194 20.592 18.4194L21.0646 19.0073Z" fill="white"/>
<path d="M23.4534 17.7835C23.4534 17.7835 21.9135 18.1842 21.3412 18.7089C20.7688 19.2337 21.1636 19.1303 21.1636 19.1303L20.592 18.4194C20.592 18.4194 20.8713 18.5573 21.2754 18.3661C21.6794 18.175 23.4534 17.7835 23.4534 17.7835ZM23.4534 17.7835L23.7562 17.7331C23.7562 17.7331 24.139 17.6947 24.6209 17.669C25.1029 17.6433 24.3923 17.2669 24.3923 17.2669C24.3923 17.2669 24.1762 17.4118 24.126 17.4507C24.0258 17.5283 23.4534 17.7835 23.4534 17.7835Z" stroke="white" stroke-width="0.204544"/>
<path d="M16.2727 2.42461C14.8243 1.82416 12.2734 2.7801 12.2734 2.7801C12.2734 2.7801 13.5815 4.33893 14.673 5.00191C15.5378 5.52719 16.5513 5.25628 17.6058 5.8017C18.1615 6.08917 18.9389 6.69048 18.9389 6.69048C18.9389 6.69048 18.0875 3.17692 16.2727 2.42461Z" fill="white"/>
<path d="M16.1359 2.9462C15.2675 2.36652 14.2729 2.72167 14.2729 2.72167C14.2729 2.72167 15.2708 3.00665 15.9007 3.49758C16.3998 3.88654 16.7559 4.6143 17.3755 5.06413C17.702 5.30121 18.1356 5.68401 18.1356 5.68401C18.1356 5.68401 17.2239 3.6725 16.1359 2.9462Z" fill="#E5502C"/>
<path d="M26.0732 2.42656C25.7836 3.02859 25.6367 3.29451 25.4094 3.60807C24.7665 4.50662 23.9051 5.22827 23.1283 5.5254C22.762 5.66347 22.3572 5.72727 21.8727 5.7223C21.3957 5.71688 20.5016 5.63207 20.2255 5.56881C19.9914 5.51226 19.9356 5.52781 19.719 5.70294C19.5853 5.80885 19.3797 6.04151 19.3822 6.08423C19.3827 6.09339 19.4989 6.07426 19.6403 6.03525C20.5378 5.79528 20.6622 6.80341 21.9692 6.96175C22.7999 7.06256 22.8869 6.66615 23.3243 6.96175C23.6555 7.18709 24.6587 7.25803 24.4787 7.41261C24.4448 7.47893 24.4807 7.40908 24.4787 7.41261C24.4787 7.41261 24.2235 7.34539 24.0738 7.24403C23.3637 6.75329 23.2805 6.61873 22.5705 6.51077C21.9366 6.41054 21.6617 6.12062 20.8625 6.16798C20.1536 6.20693 19.6676 5.98464 19.3822 6.08423C19.0525 6.20176 19.3438 6.52133 19.1476 6.7228L19.0118 6.8564L18.9975 6.61534C18.9852 6.40784 18.9969 6.34897 19.0921 6.16879C19.2281 5.90964 19.5317 5.60687 19.7885 5.47223C20.0233 5.34808 20.0301 5.33543 19.9717 5.24396C19.9342 5.18494 19.9341 5.12064 19.973 4.94686C20.0827 4.43511 20.5036 3.81305 21.1239 3.23736C21.9199 2.49814 22.4307 2.24434 23.6591 1.96945C23.9727 1.89881 25.2808 1.82129 25.6194 1.85328C25.9847 1.88981 26.2865 1.93929 26.2842 1.96392C26.2849 1.97613 26.1875 2.184 26.0732 2.42656ZM25.8369 2.26908C25.803 2.33539 25.7545 2.38489 25.6232 2.49643C25.5438 2.5203 25.5091 2.54573 25.4838 2.5656C24.9913 2.93774 23.2068 4.04174 22.2795 4.54377C21.5061 4.96318 20.4486 5.43923 20.2639 5.45018C20.2375 5.45174 20.2158 5.46834 20.2169 5.48665C20.2199 5.53852 21.2658 5.4398 21.5899 5.35629C21.7353 5.32011 21.982 5.26875 22.1469 5.24366C22.4993 5.1891 22.915 5.05423 23.2641 4.88043C23.5802 4.72391 24.1692 4.32155 24.4787 4.05517C24.7558 3.81522 25.2098 3.3045 25.4613 2.95276C25.6255 2.72256 25.9261 2.24236 25.9242 2.20879C25.9236 2.19964 25.8838 2.22956 25.8369 2.26908Z" fill="white"/>
</svg>
