<svg width="0" height="0" class="hidden">
  <symbol fill="none" xmlns="http://www.w3.org/2000/svg" viewBox="0 0 8 15" id="ic_arr_hor">
    <path d="M0.188937 6.99074L6.97775 0.586237C7.09102 0.479321 7.24152 0.419677 7.39802 0.419677C7.55451 0.419677 7.70501 0.479321 7.81828 0.586237L7.82559 0.593474C7.88069 0.645305 7.92457 0.707693 7.95455 0.776844C7.98454 0.845994 8 0.920462 8 0.995715C8 1.07097 7.98454 1.14544 7.95455 1.21459C7.92457 1.28374 7.88069 1.34613 7.82559 1.39796L1.43268 7.42856L7.82559 13.4568C7.88069 13.5086 7.92457 13.571 7.95455 13.6401C7.98454 13.7093 8 13.7837 8 13.859C8 13.9343 7.98454 14.0087 7.95455 14.0779C7.92457 14.147 7.88069 14.2094 7.82559 14.2612L7.81828 14.2685C7.70501 14.3754 7.55451 14.435 7.39802 14.435C7.24152 14.435 7.09102 14.3754 6.97775 14.2685L0.188938 7.86397C0.129233 7.80765 0.081701 7.73991 0.0492239 7.66486C0.0167468 7.58981 3.09545e-07 7.50901 3.0598e-07 7.42736C3.02415e-07 7.34571 0.0167468 7.26491 0.0492239 7.18986C0.081701 7.1148 0.129233 7.04706 0.188937 6.99074Z" fill="currentColor"></path>
  </symbol>
  <symbol fill="none" xmlns="http://www.w3.org/2000/svg" viewBox="0 0 5 4" id="ic_arr_ver">
    <path d="M2.5 4L0.334936 0.25L4.66506 0.25L2.5 4Z" fill="currentColor"></path>
  </symbol>
  <symbol fill="none" xmlns="http://www.w3.org/2000/svg" viewBox="0 0 17 16" id="ic_close">
    <line x1="1.35355" y1="0.646447" x2="16.3536" y2="15.6464" stroke="currentColor"></line>
    <line x1="0.646447" y1="15.6464" x2="15.6464" y2="0.646448" stroke="currentColor"></line>
  </symbol>
  <symbol fill="none" xmlns="http://www.w3.org/2000/svg" viewBox="0 0 15 11" id="ic_menu">
    <line y1="0.5" x2="15" y2="0.5" stroke="currentColor"></line>
    <line y1="5.5" x2="15" y2="5.5" stroke="currentColor"></line>
    <line y1="10.5" x2="15" y2="10.5" stroke="currentColor"></line>
  </symbol>
  <symbol fill="none" xmlns="http://www.w3.org/2000/svg" viewBox="0 0 24 24" id="ic_phone">
    <path d="M21.3493 15.5372V15.54V19.5C21.3493 19.9907 21.1544 20.4612 20.8075 20.8081C20.4605 21.1551 19.99 21.35 19.4993 21.35H19.3834C12.1537 20.9311 8.06297 17.6832 5.72892 14.0983C3.37964 10.49 2.79211 6.50954 2.64815 4.64176L2.64806 4.64065C2.62868 4.39804 2.65737 4.15399 2.73247 3.92249C2.80757 3.69098 2.92761 3.47657 3.08572 3.29154C3.24383 3.10651 3.43689 2.95449 3.65385 2.8442C3.86646 2.73612 4.09792 2.6702 4.33547 2.65L8.45183 2.65L8.45222 2.65C8.67252 2.64979 8.88782 2.71573 9.07022 2.83929C9.25261 2.96285 9.39371 3.13833 9.47522 3.343L9.47521 3.343L9.47627 3.3456L10.6158 6.14938C10.6159 6.14961 10.616 6.14985 10.6161 6.15009C10.6963 6.34984 10.7162 6.56877 10.6732 6.77973C10.6302 6.99093 10.5261 7.18485 10.3738 7.33737L10.3727 7.33848L8.77517 8.95098L8.62952 9.098L8.66538 9.30182C8.92913 10.8006 9.64688 12.1822 10.7215 13.2597C11.7962 14.3372 13.1759 15.0586 14.674 15.3263L14.8784 15.3628L15.0259 15.2166L16.652 13.6055C16.8066 13.4556 17.0019 13.3543 17.2136 13.3143C17.4258 13.2742 17.6451 13.2975 17.8442 13.3812L17.8442 13.3813L17.8506 13.3838L20.6753 14.5152C20.8758 14.5994 21.0469 14.7412 21.1669 14.9226C21.2874 15.1048 21.3509 15.3188 21.3493 15.5372Z" stroke="currentColor" stroke-width="0.8"></path>
  </symbol>
  <symbol fill="none" xmlns="http://www.w3.org/2000/svg" viewBox="0 0 23 24" id="ic_plus">
    <line x1="11.5" y1="0.5" x2="11.5" y2="23.5" stroke="currentColor"></line>
    <line x1="23" y1="12" x2="-4.37114e-08" y2="12" stroke="currentColor"></line>
  </symbol>
</svg>