<svg width="0" height="0" class="hidden">
  <symbol fill="none" xmlns="http://www.w3.org/2000/svg" viewBox="0 0 17 16" id="ic_close">
    <line x1="1.35355" y1="0.646447" x2="16.3536" y2="15.6464" stroke="currentColor"></line>
    <line x1="0.646447" y1="15.6464" x2="15.6464" y2="0.646448" stroke="currentColor"></line>
  </symbol>
  <symbol fill="none" xmlns="http://www.w3.org/2000/svg" viewBox="0 0 12 19" id="ic_female">
    <path d="M9.94219 9.94219C11.0414 8.84297 11.6484 7.37871 11.6484 5.82422C11.6484 4.26768 11.0435 2.80547 9.94219 1.70625C8.84297 0.607031 7.37871 0 5.82422 0C4.26973 0 2.80547 0.60498 1.70625 1.70625C0.607032 2.80752 0 4.26768 0 5.82422C0 7.13262 0.428613 8.37539 1.21816 9.39053C1.36787 9.5833 1.52988 9.76582 1.7042 9.94219C1.87852 10.1165 2.06309 10.2785 2.25381 10.4282C3.06592 11.0599 4.02363 11.4618 5.04492 11.5972V13.7812H2.70703C2.6168 13.7812 2.54297 13.8551 2.54297 13.9453V15.1758C2.54297 15.266 2.6168 15.3398 2.70703 15.3398H5.04492V18.2109C5.04492 18.3012 5.11875 18.375 5.20898 18.375H6.43945C6.52969 18.375 6.60352 18.3012 6.60352 18.2109V15.3398H8.94141C9.03164 15.3398 9.10547 15.266 9.10547 15.1758V13.9453C9.10547 13.8551 9.03164 13.7812 8.94141 13.7812H6.60352V11.5972C7.86475 11.429 9.02754 10.8568 9.94219 9.94219ZM5.82422 10.0898C4.68398 10.0898 3.61553 9.64688 2.80752 8.84092C2.00156 8.03496 1.55859 6.96445 1.55859 5.82422C1.55859 4.68398 2.00156 3.61553 2.80752 2.80752C3.61348 1.99951 4.68398 1.55859 5.82422 1.55859C6.96445 1.55859 8.03291 2.00156 8.84092 2.80752C9.64687 3.61348 10.0898 4.68398 10.0898 5.82422C10.0898 6.96445 9.64687 8.03291 8.84092 8.84092C8.03291 9.64688 6.96445 10.0898 5.82422 10.0898Z" fill="currentColor"></path>
  </symbol>
  <symbol fill="none" xmlns="http://www.w3.org/2000/svg" viewBox="0 0 17 17" id="ic_male">
    <path d="M15.4629 0H10.2949C10.2272 0 10.1719 0.0553711 10.1719 0.123047V1.27148C10.1719 1.33916 10.2272 1.39453 10.2949 1.39453H13.5844L9.49717 5.48174C8.47178 4.69219 7.2208 4.26562 5.90625 4.26562C4.3292 4.26562 2.84443 4.88086 1.73086 5.99648C0.617285 7.11211 0 8.59482 0 10.1719C0 11.7489 0.615234 13.2337 1.73086 14.3473C2.84443 15.4629 4.3292 16.0781 5.90625 16.0781C7.4833 16.0781 8.96807 15.4629 10.0816 14.3473C11.1973 13.2337 11.8125 11.7489 11.8125 10.1719C11.8125 8.85732 11.3859 7.61045 10.5984 6.58506L14.6836 2.4999V5.7832C14.6836 5.85088 14.739 5.90625 14.8066 5.90625H15.9551C16.0228 5.90625 16.0781 5.85088 16.0781 5.7832V0.615234C16.0781 0.276855 15.8013 0 15.4629 0ZM5.90625 14.5195C3.50889 14.5195 1.55859 12.5692 1.55859 10.1719C1.55859 7.77451 3.50889 5.82422 5.90625 5.82422C8.30361 5.82422 10.2539 7.77451 10.2539 10.1719C10.2539 12.5692 8.30361 14.5195 5.90625 14.5195Z" fill="currentColor"></path>
  </symbol>
  <symbol fill="none" xmlns="http://www.w3.org/2000/svg" viewBox="0 0 8 15" id="ic_arr_hor">
    <path d="M0.188937 6.99074L6.97775 0.586237C7.09102 0.479321 7.24152 0.419677 7.39802 0.419677C7.55451 0.419677 7.70501 0.479321 7.81828 0.586237L7.82559 0.593474C7.88069 0.645305 7.92457 0.707693 7.95455 0.776844C7.98454 0.845994 8 0.920462 8 0.995715C8 1.07097 7.98454 1.14544 7.95455 1.21459C7.92457 1.28374 7.88069 1.34613 7.82559 1.39796L1.43268 7.42856L7.82559 13.4568C7.88069 13.5086 7.92457 13.571 7.95455 13.6401C7.98454 13.7093 8 13.7837 8 13.859C8 13.9343 7.98454 14.0087 7.95455 14.0779C7.92457 14.147 7.88069 14.2094 7.82559 14.2612L7.81828 14.2685C7.70501 14.3754 7.55451 14.435 7.39802 14.435C7.24152 14.435 7.09102 14.3754 6.97775 14.2685L0.188938 7.86397C0.129233 7.80765 0.081701 7.73991 0.0492239 7.66486C0.0167468 7.58981 3.09545e-07 7.50901 3.0598e-07 7.42736C3.02415e-07 7.34571 0.0167468 7.26491 0.0492239 7.18986C0.081701 7.1148 0.129233 7.04706 0.188937 6.99074Z" fill="currentColor"></path>
  </symbol>
  <symbol fill="none" xmlns="http://www.w3.org/2000/svg" viewBox="0 0 60 22" id="ic_menu">
    <path d="M0 1H60" stroke="currentColor"></path>
    <path d="M20 11L60 11" stroke="currentColor"></path>
    <path d="M0 21H60" stroke="currentColor"></path>
  </symbol>
  <symbol fill="none" xmlns="http://www.w3.org/2000/svg" viewBox="0 0 24 24" id="ic_phone">
    <path d="M21.3493 15.5372V15.54V19.5C21.3493 19.9907 21.1544 20.4612 20.8075 20.8081C20.4605 21.1551 19.99 21.35 19.4993 21.35H19.3834C12.1537 20.9311 8.06297 17.6832 5.72892 14.0983C3.37964 10.49 2.79211 6.50954 2.64815 4.64176L2.64806 4.64065C2.62868 4.39804 2.65737 4.15399 2.73247 3.92249C2.80757 3.69098 2.92761 3.47657 3.08572 3.29154C3.24383 3.10651 3.43689 2.95449 3.65385 2.8442C3.86646 2.73612 4.09792 2.6702 4.33547 2.65L8.45183 2.65L8.45222 2.65C8.67252 2.64979 8.88782 2.71573 9.07022 2.83929C9.25261 2.96285 9.39371 3.13833 9.47522 3.343L9.47521 3.343L9.47627 3.3456L10.6158 6.14938C10.6159 6.14961 10.616 6.14985 10.6161 6.15009C10.6963 6.34984 10.7162 6.56877 10.6732 6.77973C10.6302 6.99093 10.5261 7.18485 10.3738 7.33737L10.3727 7.33848L8.77517 8.95098L8.62952 9.098L8.66538 9.30182C8.92913 10.8006 9.64688 12.1822 10.7215 13.2597C11.7962 14.3372 13.1759 15.0586 14.674 15.3263L14.8784 15.3628L15.0259 15.2166L16.652 13.6055C16.8066 13.4556 17.0019 13.3543 17.2136 13.3143C17.4258 13.2742 17.6451 13.2975 17.8442 13.3812L17.8442 13.3813L17.8506 13.3838L20.6753 14.5152C20.8758 14.5994 21.0469 14.7412 21.1669 14.9226C21.2874 15.1048 21.3509 15.3188 21.3493 15.5372Z" stroke="currentColor" stroke-width="0.8"></path>
  </symbol>
  <symbol fill="none" xmlns="http://www.w3.org/2000/svg" viewBox="0 0 45 25" id="ic_vk">
    <path fill-rule="evenodd" clip-rule="evenodd" d="M39.8795 17.5245C39.8795 17.5245 43.4369 21.0163 44.3169 22.6321C44.334 22.6554 44.3474 22.6812 44.3565 22.7086C44.7151 23.3055 44.8031 23.7734 44.6271 24.1189C44.3301 24.6895 43.3247 24.9759 42.9837 25H36.6961C36.2583 25 35.3475 24.8863 34.2387 24.1254C33.3917 23.5373 32.5491 22.5687 31.7329 21.6219C30.5141 20.216 29.4603 18.996 28.3933 18.996C28.2585 18.9957 28.1247 19.0179 27.9973 19.0616C27.1899 19.3152 26.1647 20.4587 26.1647 23.5045C26.1647 24.4578 25.4079 25 24.8777 25H21.9979C21.0167 25 15.9083 24.6589 11.3785 19.9121C5.82785 14.1005 0.842642 2.44228 0.794242 2.33951C0.484042 1.58518 1.13524 1.17413 1.83924 1.17413H8.18845C9.03985 1.17413 9.31705 1.68576 9.51065 2.14492C9.73505 2.67186 10.5667 4.7796 11.9307 7.14754C14.1395 11.0001 15.4969 12.5678 16.5815 12.5678C16.7852 12.5684 16.9856 12.5156 17.1623 12.4147C18.5791 11.6407 18.3151 6.61186 18.2491 5.57548C18.2491 5.37432 18.2469 3.32998 17.5209 2.3417C17.0017 1.63329 16.1173 1.35779 15.5827 1.25721C15.7257 1.05169 16.0293 0.736837 16.4187 0.550988C17.3889 0.0699665 19.1423 0 20.8825 0H21.8483C23.7359 0.0262375 24.2243 0.146493 24.9107 0.319223C26.2923 0.647192 26.3187 1.53708 26.1977 4.56752C26.1625 5.43336 26.1251 6.40852 26.1251 7.55641C26.1251 7.80129 26.1141 8.0746 26.1141 8.35228C26.0723 9.90686 26.0173 11.6582 27.1217 12.3776C27.2649 12.4662 27.4303 12.5132 27.5991 12.5131C27.9819 12.5131 29.1281 12.5131 32.2367 7.21095C33.6007 4.86925 34.6567 2.10775 34.7293 1.90003C34.7909 1.78415 34.9757 1.45837 35.2001 1.32718C35.3597 1.24277 35.5385 1.20061 35.7193 1.20474H43.1883C44.0023 1.20474 44.5545 1.32718 44.6623 1.63329C44.8427 2.12961 44.6271 3.64483 41.2171 8.22765C40.6429 8.99073 40.1391 9.65104 39.6969 10.2283C36.6059 14.2601 36.6059 14.4634 39.8795 17.5245Z" fill="currentColor"></path>
  </symbol>
  <symbol fill="none" xmlns="http://www.w3.org/2000/svg" viewBox="0 0 36 25" id="ic_youtube">
    <path d="M14.2857 17.8571L23.5536 12.5L14.2857 7.14286V17.8571ZM34.9286 3.875C35.1607 4.71429 35.3214 5.83928 35.4286 7.26786C35.5536 8.69643 35.6071 9.92857 35.6071 11L35.7143 12.5C35.7143 16.4107 35.4286 19.2857 34.9286 21.125C34.4821 22.7321 33.4464 23.7679 31.8393 24.2143C31 24.4464 29.4643 24.6071 27.1071 24.7143C24.7857 24.8393 22.6607 24.8929 20.6964 24.8929L17.8571 25C10.375 25 5.71429 24.7143 3.875 24.2143C2.26786 23.7679 1.23214 22.7321 0.785714 21.125C0.553572 20.2857 0.392857 19.1607 0.285714 17.7321C0.160714 16.3036 0.107143 15.0714 0.107143 14L0 12.5C0 8.58929 0.285714 5.71429 0.785714 3.875C1.23214 2.26786 2.26786 1.23214 3.875 0.785714C4.71429 0.553572 6.25 0.392857 8.60714 0.285714C10.9286 0.160714 13.0536 0.107143 15.0179 0.107143L17.8571 0C25.3393 0 30 0.285714 31.8393 0.785714C33.4464 1.23214 34.4821 2.26786 34.9286 3.875Z" fill="currentColor"></path>
  </symbol>
</svg>