<svg width="1200" height="363" viewBox="0 0 1200 363" fill="none" xmlns="http://www.w3.org/2000/svg">
<rect width="1200" height="363" fill="white"/>
<path d="M0 40C0 17.9086 17.9086 0 40 0H1120C1142.09 0 1160 17.9086 1160 40V323C1160 345.091 1142.09 363 1120 363H40C17.9086 363 0 345.091 0 323V40Z" fill="#FFFFFF"/>
<path d="M113.512 91.2635C126.029 91.2635 132.998 91.2635 137.538 86.6833C142.088 82.1031 142.088 75.0993 142.088 62.5011C142.088 49.9028 141.027 42.8884 136.477 38.3188C103.574 38.3188 89.4873 56.2126 89.4873 85.6156C94.0272 90.1958 100.985 91.2635 113.512 91.2635Z" fill="#EC9662"/>
<path d="M137.285 38.3189C132.746 33.7494 125.777 33.7494 113.26 33.7494C100.744 33.7494 93.7749 33.7494 89.235 38.3296C84.6846 42.8884 84.6846 49.9029 84.6846 62.5011C84.6846 75.0994 84.6846 82.1138 89.2244 86.6833C93.7006 91.1995 100.871 91.3703 112.497 90.6763C124.037 89.9076 129.022 88.3702 133.605 83.822C138.113 79.2098 140.086 73.7541 141.072 61.9139C141.963 49.999 141.751 42.8351 137.285 38.3189Z" fill="#E5502C"/>
<path d="M169.552 54.9211H161.861V59.0315H168.851V64.4765H161.861V74.1814H155.497V49.4761H169.552V54.9211Z" fill="#333333"/>
<path d="M180.919 49.4761V68.7364H188.577V74.1814H174.555V49.4761H180.919Z" fill="#333333"/>
<path d="M198.882 49.4761V74.1814H192.518V49.4761H198.882Z" fill="#333333"/>
<path d="M215.201 49.4761C217.036 49.4761 219.401 49.775 221.204 51.6648C222.605 53.1061 223.305 55.2627 223.305 57.2165C223.305 59.3305 222.573 61.1775 221.353 62.3626C220.398 63.2914 219.104 63.8466 217.969 64.0708L225.659 74.1814H217.746L211.637 64.7007V74.1814H205.272V49.4761H215.201ZM211.626 60.5583H212.846C213.801 60.5583 215.169 60.302 215.933 59.5547C216.41 59.0742 216.739 58.2628 216.739 57.4834C216.739 56.7468 216.442 55.9247 215.89 55.4122C215.296 54.825 214.235 54.4513 212.835 54.4513H211.616V60.5583H211.626Z" fill="#333333"/>
<path d="M238.454 54.9211V74.1814H232.09V54.9211H226.86V49.4761H243.683V54.9211H238.454Z" fill="#333333"/>
<path d="M258.9 66.7824C260.258 68.0742 262.326 69.302 264.532 69.302C265.816 69.302 266.59 68.8963 267.004 68.4479C267.375 68.0742 267.63 67.5191 267.63 66.8892C267.63 66.4087 267.449 65.8535 266.93 65.4051C266.304 64.8499 265.349 64.5937 263.769 64.1133L262.114 63.5901C261.085 63.2592 259.579 62.704 258.582 61.5936C257.33 60.227 257.182 58.4761 257.182 57.2269C257.182 54.1948 258.359 52.3371 259.43 51.2588C260.682 49.999 262.74 48.9207 265.72 48.9207C268.149 48.9207 270.982 49.7 273.305 50.9172L270.769 55.9137C268.86 54.3977 267.418 54.2482 266.569 54.2482C265.943 54.2482 265.095 54.3977 264.469 54.9849C264.098 55.3586 263.843 55.7643 263.843 56.3194C263.843 56.7679 263.917 57.0988 264.172 57.4298C264.352 57.654 264.798 58.0917 266.304 58.5402L268.256 59.1274C269.804 59.6078 271.416 60.163 272.711 61.5723C273.962 62.9068 274.291 64.2734 274.291 65.9817C274.291 68.2451 273.739 70.4231 271.968 72.206C269.868 74.32 267.333 74.7257 264.723 74.7257C263.175 74.7257 261.7 74.5762 259.897 73.9143C259.494 73.7648 257.945 73.1776 256.185 71.9498L258.9 66.7824Z" fill="#333333"/>
<path d="M288.54 54.9211V74.1814H282.176V54.9211H276.946V49.4761H293.769V54.9211H288.54Z" fill="#333333"/>
<path d="M304.926 62.3305L296.059 49.4761H303.675L308.31 56.2236L312.765 49.4761H320.497L311.333 62.3305V74.1814H304.926V62.3305Z" fill="#333333"/>
<path d="M330.259 49.4761V68.7364H337.917V74.1814H323.895V49.4761H330.259Z" fill="#333333"/>
<path d="M355.765 54.9211H348.181V59.0315H355.362V64.4765H348.181V68.7364H355.765V74.1814H341.816V49.4761H355.765V54.9211Z" fill="#333333"/>
<path d="M108.964 55.7738H103.533C103.066 55.7738 102.685 56.1582 102.685 56.628V58.7312C102.685 59.201 103.066 59.5853 103.533 59.5853H108.317C108.784 59.5853 109.166 59.9697 109.166 60.4395V63.7812C109.166 64.251 108.784 64.6353 108.317 64.6353H103.533C103.066 64.6353 102.685 65.0197 102.685 65.4894V72.7815C102.685 73.2512 102.303 73.6356 101.836 73.6356H97.6249C97.1582 73.6356 96.7764 73.2512 96.7764 72.7815V51.578C96.7764 51.1082 97.1582 50.7239 97.6249 50.7239H108.964C109.431 50.7239 109.813 51.1082 109.813 51.578V54.9197C109.813 55.4002 109.431 55.7738 108.964 55.7738Z" fill="white"/>
<path d="M115.687 67.7002C115.93 67.2304 116.535 67.1129 116.959 67.4332C118.169 68.3514 119.738 69.0988 121.393 69.0988C122.592 69.0988 123.302 68.7251 123.674 68.3087C124.013 67.9671 124.257 67.4546 124.257 66.8674C124.257 66.419 124.087 65.9065 123.61 65.4901C123.027 64.9777 122.146 64.7321 120.672 64.2837L119.134 63.8032C118.179 63.4936 116.779 62.9812 115.856 61.9455C114.7 60.675 114.562 59.0629 114.562 57.8992C114.562 55.0806 115.655 53.3723 116.641 52.3687C117.797 51.205 119.707 50.2014 122.475 50.2014C124.448 50.2014 126.718 50.7566 128.691 51.6534C129.136 51.8563 129.327 52.3901 129.105 52.8278L127.588 55.8172C127.354 56.2657 126.792 56.4044 126.368 56.1375C124.978 55.2514 123.918 55.1553 123.26 55.1553C122.677 55.1553 121.892 55.2941 121.319 55.8386C120.979 56.1802 120.736 56.5646 120.736 57.0771C120.736 57.4934 120.799 57.8031 121.043 58.102C121.213 58.3049 121.627 58.7212 123.027 59.1269L124.83 59.6714C126.262 60.1199 127.768 60.6323 128.956 61.9349C130.112 63.1733 130.42 64.4438 130.42 66.0239C130.42 68.1165 129.911 70.1451 128.267 71.7892C126.325 73.743 123.971 74.1274 121.552 74.1274C120.12 74.1274 118.752 73.9886 117.087 73.3694C116.768 73.2519 115.655 72.8249 114.308 71.9921C113.926 71.7572 113.788 71.2661 114 70.8604L115.687 67.7002Z" fill="white"/>
<path d="M142.92 184L142.84 150.48L126.36 178.08H120.6L104.12 151.12V184H91.96V128H102.68L123.64 162.8L144.28 128H155L155.08 184H142.92ZM219.551 128L195.711 172.32C193.418 176.587 190.645 179.813 187.391 182C184.191 184.187 180.698 185.28 176.911 185.28C173.978 185.28 170.938 184.64 167.791 183.36L170.911 173.52C173.151 174.213 175.018 174.56 176.511 174.56C178.111 174.56 179.551 174.187 180.831 173.44C182.111 172.64 183.285 171.413 184.351 169.76L184.831 169.12L162.751 128H176.591L191.471 158.08L206.831 128H219.551ZM275.573 161.44H267.413V184H254.693V161.44H246.373L233.813 184H218.853L235.653 154.72L219.893 128H233.573L246.133 150.64H254.693V128H267.413V150.64H275.733L288.373 128H302.053L286.373 154.72L303.093 184H288.133L275.573 161.44ZM335.549 184.96C329.843 184.96 324.669 183.733 320.029 181.28C315.443 178.773 311.816 175.333 309.149 170.96C306.536 166.533 305.229 161.547 305.229 156C305.229 150.453 306.536 145.493 309.149 141.12C311.816 136.693 315.443 133.253 320.029 130.8C324.669 128.293 329.869 127.04 335.629 127.04C340.483 127.04 344.856 127.893 348.749 129.6C352.696 131.307 356.003 133.76 358.669 136.96L350.349 144.64C346.563 140.267 341.869 138.08 336.269 138.08C332.803 138.08 329.709 138.853 326.989 140.4C324.269 141.893 322.136 144 320.589 146.72C319.096 149.44 318.349 152.533 318.349 156C318.349 159.467 319.096 162.56 320.589 165.28C322.136 168 324.269 170.133 326.989 171.68C329.709 173.173 332.803 173.92 336.269 173.92C341.869 173.92 346.563 171.707 350.349 167.28L358.669 174.96C356.003 178.213 352.696 180.693 348.749 182.4C344.803 184.107 340.403 184.96 335.549 184.96ZM388.796 161.44H379.836V184H366.956V128H379.836V150.64H389.116L403.836 128H417.516L399.196 155.04L418.076 184H403.356L388.796 161.44ZM450.633 184.96C444.82 184.96 439.566 183.707 434.873 181.2C430.233 178.693 426.58 175.253 423.913 170.88C421.3 166.453 419.993 161.493 419.993 156C419.993 150.507 421.3 145.573 423.913 141.2C426.58 136.773 430.233 133.307 434.873 130.8C439.566 128.293 444.82 127.04 450.633 127.04C456.446 127.04 461.673 128.293 466.313 130.8C470.953 133.307 474.606 136.773 477.273 141.2C479.94 145.573 481.273 150.507 481.273 156C481.273 161.493 479.94 166.453 477.273 170.88C474.606 175.253 470.953 178.693 466.313 181.2C461.673 183.707 456.446 184.96 450.633 184.96ZM450.633 173.92C453.94 173.92 456.926 173.173 459.593 171.68C462.26 170.133 464.34 168 465.833 165.28C467.38 162.56 468.153 159.467 468.153 156C468.153 152.533 467.38 149.44 465.833 146.72C464.34 144 462.26 141.893 459.593 140.4C456.926 138.853 453.94 138.08 450.633 138.08C447.326 138.08 444.34 138.853 441.673 140.4C439.006 141.893 436.9 144 435.353 146.72C433.86 149.44 433.113 152.533 433.113 156C433.113 159.467 433.86 162.56 435.353 165.28C436.9 168 439.006 170.133 441.673 171.68C444.34 173.173 447.326 173.92 450.633 173.92ZM491.257 128H504.137V164.48L530.857 128H543.017V184H530.217V147.6L503.497 184H491.257V128ZM517.097 124.4C506.857 124.4 501.684 120.32 501.577 112.16H510.457C510.564 116.053 512.777 118 517.097 118C519.23 118 520.857 117.52 521.977 116.56C523.097 115.547 523.684 114.08 523.737 112.16H532.617C532.564 116.16 531.257 119.2 528.697 121.28C526.137 123.36 522.27 124.4 517.097 124.4ZM630.656 128V184H617.776V138.56H592.496V184H579.616V128H630.656ZM671.018 184.96C665.311 184.96 660.138 183.733 655.498 181.28C650.911 178.773 647.285 175.333 644.618 170.96C642.005 166.533 640.698 161.547 640.698 156C640.698 150.453 642.005 145.493 644.618 141.12C647.285 136.693 650.911 133.253 655.498 130.8C660.138 128.293 665.338 127.04 671.098 127.04C675.951 127.04 680.325 127.893 684.218 129.6C688.165 131.307 691.471 133.76 694.138 136.96L685.818 144.64C682.031 140.267 677.338 138.08 671.738 138.08C668.271 138.08 665.178 138.853 662.458 140.4C659.738 141.893 657.605 144 656.058 146.72C654.565 149.44 653.818 152.533 653.818 156C653.818 159.467 654.565 162.56 656.058 165.28C657.605 168 659.738 170.133 662.458 171.68C665.178 173.173 668.271 173.92 671.738 173.92C677.338 173.92 682.031 171.707 685.818 167.28L694.138 174.96C691.471 178.213 688.165 180.693 684.218 182.4C680.271 184.107 675.871 184.96 671.018 184.96ZM702.585 128H715.465V164.48L742.185 128H754.345V184H741.545V147.6L714.825 184H702.585V128ZM778.368 128L789.968 144.96L801.568 128H816.768L798.128 154.8L818.288 184H803.008L789.968 165.44L777.088 184H762.128L782.128 155.36L763.408 128H778.368ZM850.711 184.96C844.898 184.96 839.645 183.707 834.951 181.2C830.311 178.693 826.658 175.253 823.991 170.88C821.378 166.453 820.071 161.493 820.071 156C820.071 150.507 821.378 145.573 823.991 141.2C826.658 136.773 830.311 133.307 834.951 130.8C839.645 128.293 844.898 127.04 850.711 127.04C856.525 127.04 861.751 128.293 866.391 130.8C871.031 133.307 874.685 136.773 877.351 141.2C880.018 145.573 881.351 150.507 881.351 156C881.351 161.493 880.018 166.453 877.351 170.88C874.685 175.253 871.031 178.693 866.391 181.2C861.751 183.707 856.525 184.96 850.711 184.96ZM850.711 173.92C854.018 173.92 857.005 173.173 859.671 171.68C862.338 170.133 864.418 168 865.911 165.28C867.458 162.56 868.231 159.467 868.231 156C868.231 152.533 867.458 149.44 865.911 146.72C864.418 144 862.338 141.893 859.671 140.4C857.005 138.853 854.018 138.08 850.711 138.08C847.405 138.08 844.418 138.853 841.751 140.4C839.085 141.893 836.978 144 835.431 146.72C833.938 149.44 833.191 152.533 833.191 156C833.191 159.467 833.938 162.56 835.431 165.28C836.978 168 839.085 170.133 841.751 171.68C844.418 173.173 847.405 173.92 850.711 173.92ZM939.693 128V184H926.892V138.56H907.693L907.293 150.24C907.026 158.187 906.386 164.64 905.373 169.6C904.359 174.507 902.653 178.293 900.253 180.96C897.906 183.573 894.599 184.88 890.333 184.88C888.573 184.88 886.439 184.587 883.933 184L884.733 173.04C885.426 173.253 886.199 173.36 887.053 173.36C890.146 173.36 892.306 171.547 893.533 167.92C894.759 164.24 895.533 158.507 895.853 150.72L896.653 128H939.693ZM980.399 184.96C974.585 184.96 969.332 183.707 964.639 181.2C959.999 178.693 956.345 175.253 953.679 170.88C951.065 166.453 949.759 161.493 949.759 156C949.759 150.507 951.065 145.573 953.679 141.2C956.345 136.773 959.999 133.307 964.639 130.8C969.332 128.293 974.585 127.04 980.399 127.04C986.212 127.04 991.439 128.293 996.079 130.8C1000.72 133.307 1004.37 136.773 1007.04 141.2C1009.71 145.573 1011.04 150.507 1011.04 156C1011.04 161.493 1009.71 166.453 1007.04 170.88C1004.37 175.253 1000.72 178.693 996.079 181.2C991.439 183.707 986.212 184.96 980.399 184.96ZM980.399 173.92C983.705 173.92 986.692 173.173 989.359 171.68C992.025 170.133 994.105 168 995.599 165.28C997.145 162.56 997.919 159.467 997.919 156C997.919 152.533 997.145 149.44 995.599 146.72C994.105 144 992.025 141.893 989.359 140.4C986.692 138.853 983.705 138.08 980.399 138.08C977.092 138.08 974.105 138.853 971.439 140.4C968.772 141.893 966.665 144 965.119 146.72C963.625 149.44 962.879 152.533 962.879 156C962.879 159.467 963.625 162.56 965.119 165.28C966.665 168 968.772 170.133 971.439 171.68C974.105 173.173 977.092 173.92 980.399 173.92ZM1060.46 138.56H1033.82L1033.9 184H1021.02V128H1060.54L1060.46 138.56Z" fill="#E5502C"/>
<path d="M111.668 300.784V322H107.789V304.118H96.7865V322H92.9069V300.784H111.668ZM127.41 322.303C125.269 322.303 123.329 321.838 121.591 320.909C119.874 319.959 118.52 318.656 117.53 316.999C116.56 315.342 116.075 313.473 116.075 311.392C116.075 309.311 116.57 307.441 117.56 305.785C118.55 304.128 119.904 302.834 121.621 301.905C123.359 300.955 125.299 300.48 127.441 300.48C129.178 300.48 130.765 300.784 132.199 301.39C133.634 301.996 134.846 302.875 135.836 304.027L133.29 306.421C131.755 304.764 129.865 303.936 127.623 303.936C126.168 303.936 124.864 304.259 123.713 304.906C122.561 305.532 121.662 306.411 121.015 307.542C120.369 308.674 120.045 309.957 120.045 311.392C120.045 312.826 120.369 314.109 121.015 315.241C121.662 316.373 122.561 317.262 123.713 317.908C124.864 318.535 126.168 318.848 127.623 318.848C129.865 318.848 131.755 318.009 133.29 316.332L135.836 318.757C134.846 319.909 133.624 320.788 132.169 321.394C130.734 322 129.148 322.303 127.41 322.303ZM139.525 300.784H143.405V315.847L154.801 300.784H158.468V322H154.589V306.967L143.193 322H139.525V300.784ZM166.872 300.784L171.873 307.876L176.874 300.784H181.481L174.359 310.967L182.057 322H177.389L171.873 314.271L166.387 322H161.841L169.509 311.119L162.326 300.784H166.872ZM194.453 322.303C192.291 322.303 190.341 321.838 188.604 320.909C186.866 319.959 185.502 318.656 184.512 316.999C183.522 315.322 183.027 313.453 183.027 311.392C183.027 309.331 183.522 307.472 184.512 305.815C185.502 304.138 186.866 302.834 188.604 301.905C190.341 300.955 192.291 300.48 194.453 300.48C196.615 300.48 198.565 300.955 200.303 301.905C202.041 302.834 203.405 304.128 204.395 305.785C205.385 307.441 205.88 309.311 205.88 311.392C205.88 313.473 205.385 315.342 204.395 316.999C203.405 318.656 202.041 319.959 200.303 320.909C198.565 321.838 196.615 322.303 194.453 322.303ZM194.453 318.848C195.868 318.848 197.141 318.535 198.272 317.908C199.404 317.262 200.293 316.373 200.94 315.241C201.586 314.089 201.909 312.806 201.909 311.392C201.909 309.977 201.586 308.704 200.94 307.573C200.293 306.421 199.404 305.532 198.272 304.906C197.141 304.259 195.868 303.936 194.453 303.936C193.039 303.936 191.766 304.259 190.634 304.906C189.503 305.532 188.614 306.421 187.967 307.573C187.321 308.704 186.997 309.977 186.997 311.392C186.997 312.806 187.321 314.089 187.967 315.241C188.614 316.373 189.503 317.262 190.634 317.908C191.766 318.535 193.039 318.848 194.453 318.848ZM227.769 300.784V322H223.89V304.118H215.524L215.342 309.422C215.241 312.392 214.999 314.807 214.615 316.666C214.231 318.504 213.615 319.909 212.766 320.879C211.917 321.828 210.745 322.303 209.25 322.303C208.725 322.303 208.008 322.202 207.098 322L207.371 318.575C207.634 318.656 207.937 318.696 208.28 318.696C209.513 318.696 210.382 317.969 210.887 316.514C211.412 315.039 211.736 312.725 211.857 309.573L212.16 300.784H227.769ZM243.558 322.303C241.396 322.303 239.446 321.838 237.708 320.909C235.971 319.959 234.607 318.656 233.617 316.999C232.626 315.322 232.131 313.453 232.131 311.392C232.131 309.331 232.626 307.472 233.617 305.815C234.607 304.138 235.971 302.834 237.708 301.905C239.446 300.955 241.396 300.48 243.558 300.48C245.72 300.48 247.67 300.955 249.408 301.905C251.145 302.834 252.509 304.128 253.499 305.785C254.49 307.441 254.985 309.311 254.985 311.392C254.985 313.473 254.49 315.342 253.499 316.999C252.509 318.656 251.145 319.959 249.408 320.909C247.67 321.838 245.72 322.303 243.558 322.303ZM243.558 318.848C244.972 318.848 246.245 318.535 247.377 317.908C248.508 317.262 249.398 316.373 250.044 315.241C250.691 314.089 251.014 312.806 251.014 311.392C251.014 309.977 250.691 308.704 250.044 307.573C249.398 306.421 248.508 305.532 247.377 304.906C246.245 304.259 244.972 303.936 243.558 303.936C242.144 303.936 240.871 304.259 239.739 304.906C238.607 305.532 237.718 306.421 237.072 307.573C236.425 308.704 236.102 309.977 236.102 311.392C236.102 312.806 236.425 314.089 237.072 315.241C237.718 316.373 238.607 317.262 239.739 317.908C240.871 318.535 242.144 318.848 243.558 318.848ZM273.738 304.118H263.22L263.251 322H259.371V300.784H273.768L273.738 304.118ZM306.482 318.666V326.516H302.845V322H286.568V326.516H282.901L282.931 318.666H283.841C285.174 318.605 286.104 317.625 286.629 315.726C287.175 313.806 287.508 311.068 287.629 307.512L287.872 300.784H303.42V318.666H306.482ZM291.085 307.876C290.984 310.624 290.761 312.917 290.418 314.756C290.074 316.575 289.529 317.878 288.781 318.666H299.541V304.118H291.236L291.085 307.876ZM328.317 300.784V322H324.437V304.118H316.072L315.89 309.422C315.789 312.392 315.546 314.807 315.162 316.666C314.779 318.504 314.162 319.909 313.314 320.879C312.465 321.828 311.293 322.303 309.798 322.303C309.272 322.303 308.555 322.202 307.646 322L307.919 318.575C308.181 318.656 308.484 318.696 308.828 318.696C310.06 318.696 310.929 317.969 311.434 316.514C311.96 315.039 312.283 312.725 312.404 309.573L312.707 300.784H328.317ZM350.501 300.784V322H346.621V316.09H341.378H340.953L337.013 322H332.861L337.407 315.453C335.932 314.908 334.79 314.049 333.982 312.877C333.194 311.685 332.8 310.25 332.8 308.573C332.8 306.956 333.164 305.562 333.891 304.39C334.619 303.218 335.649 302.329 336.983 301.723C338.316 301.097 339.882 300.784 341.681 300.784H350.501ZM341.802 304.118C340.185 304.118 338.943 304.491 338.074 305.239C337.225 305.987 336.801 307.078 336.801 308.512C336.801 309.907 337.215 310.988 338.044 311.755C338.872 312.503 340.074 312.877 341.65 312.877H346.621V304.118H341.802ZM384.35 322L384.319 307.936L377.348 319.575H375.59L368.619 308.118V322H364.891V300.784H368.134L376.53 314.817L384.835 300.784H388.048L388.108 322H384.35ZM412.261 300.784L403.047 317.908C402.239 319.424 401.269 320.565 400.138 321.333C399.026 322.081 397.814 322.455 396.5 322.455C395.45 322.455 394.409 322.232 393.379 321.788L394.349 318.696C395.177 318.959 395.864 319.09 396.41 319.09C397.683 319.09 398.733 318.434 399.562 317.12L399.895 316.605L391.439 300.784H395.652L401.926 313.241L408.382 300.784H412.261ZM433.225 313.059H429.588V322H425.739V313.059H422.102L416.737 322H412.19L418.859 310.937L412.645 300.784H416.828L422.011 309.664H425.739V300.784H429.588V309.664H433.255L438.469 300.784H442.651L436.468 310.967L443.106 322H438.56L433.225 313.059ZM461.978 300.784V322H458.068V313.998C456.068 314.746 454.168 315.12 452.37 315.12C449.662 315.12 447.571 314.473 446.096 313.18C444.641 311.867 443.914 309.987 443.914 307.542V300.784H447.824V307.118C447.824 308.613 448.258 309.755 449.127 310.543C449.996 311.331 451.238 311.725 452.855 311.725C454.694 311.725 456.431 311.351 458.068 310.604V300.784H461.978ZM467.955 300.784H471.834V315.847L483.23 300.784H486.898V322H483.018V306.967L471.622 322H467.955V300.784ZM511.699 300.784V322H507.759V312.907H496.787V322H492.847V300.784H496.787V309.543H507.759V300.784H511.699ZM518.408 317.181C519.115 317.181 519.701 317.413 520.166 317.878C520.631 318.343 520.863 318.949 520.863 319.696C520.863 320.02 520.813 320.363 520.712 320.727C520.631 321.071 520.449 321.596 520.166 322.303L518.62 326.577H516.165L517.378 321.939C516.933 321.758 516.579 321.475 516.317 321.091C516.074 320.687 515.953 320.222 515.953 319.696C515.953 318.949 516.185 318.343 516.65 317.878C517.115 317.413 517.701 317.181 518.408 317.181ZM541.246 313.059H537.306V322H533.427V300.784H537.306V309.664H541.368L547.46 300.784H551.643L544.399 311.058L551.915 322H547.46L541.246 313.059ZM564.351 322.303C562.189 322.303 560.239 321.838 558.501 320.909C556.763 319.959 555.4 318.656 554.409 316.999C553.419 315.322 552.924 313.453 552.924 311.392C552.924 309.331 553.419 307.472 554.409 305.815C555.4 304.138 556.763 302.834 558.501 301.905C560.239 300.955 562.189 300.48 564.351 300.48C566.513 300.48 568.463 300.955 570.201 301.905C571.938 302.834 573.302 304.128 574.292 305.785C575.282 307.441 575.777 309.311 575.777 311.392C575.777 313.473 575.282 315.342 574.292 316.999C573.302 318.656 571.938 319.959 570.201 320.909C568.463 321.838 566.513 322.303 564.351 322.303ZM564.351 318.848C565.765 318.848 567.038 318.535 568.17 317.908C569.301 317.262 570.19 316.373 570.837 315.241C571.484 314.089 571.807 312.806 571.807 311.392C571.807 309.977 571.484 308.704 570.837 307.573C570.19 306.421 569.301 305.532 568.17 304.906C567.038 304.259 565.765 303.936 564.351 303.936C562.936 303.936 561.663 304.259 560.532 304.906C559.4 305.532 558.511 306.421 557.865 307.573C557.218 308.704 556.895 309.977 556.895 311.392C556.895 312.806 557.218 314.089 557.865 315.241C558.511 316.373 559.4 317.262 560.532 317.908C561.663 318.535 562.936 318.848 564.351 318.848ZM598.986 300.784V322H595.046V312.907H584.074V322H580.134V300.784H584.074V309.543H595.046V300.784H598.986ZM614.697 322.303C612.555 322.303 610.616 321.838 608.878 320.909C607.16 319.959 605.806 318.656 604.816 316.999C603.846 315.342 603.362 313.473 603.362 311.392C603.362 309.311 603.857 307.441 604.847 305.785C605.837 304.128 607.191 302.834 608.908 301.905C610.646 300.955 612.586 300.48 614.727 300.48C616.465 300.48 618.051 300.784 619.486 301.39C620.921 301.996 622.133 302.875 623.123 304.027L620.577 306.421C619.042 304.764 617.152 303.936 614.909 303.936C613.455 303.936 612.151 304.259 610.999 304.906C609.848 305.532 608.949 306.411 608.302 307.542C607.655 308.674 607.332 309.957 607.332 311.392C607.332 312.826 607.655 314.109 608.302 315.241C608.949 316.373 609.848 317.262 610.999 317.908C612.151 318.535 613.455 318.848 614.909 318.848C617.152 318.848 619.042 318.009 620.577 316.332L623.123 318.757C622.133 319.909 620.911 320.788 619.456 321.394C618.021 322 616.435 322.303 614.697 322.303ZM644.553 300.784L635.339 317.908C634.531 319.424 633.561 320.565 632.43 321.333C631.318 322.081 630.106 322.455 628.793 322.455C627.742 322.455 626.701 322.232 625.671 321.788L626.641 318.696C627.469 318.959 628.156 319.09 628.702 319.09C629.975 319.09 631.025 318.434 631.854 317.12L632.187 316.605L623.731 300.784H627.944L634.218 313.241L640.674 300.784H644.553ZM665.093 300.784V322H661.213V304.118H652.848L652.666 309.422C652.565 312.392 652.323 314.807 651.939 316.666C651.555 318.504 650.939 319.909 650.09 320.879C649.241 321.828 648.069 322.303 646.574 322.303C646.049 322.303 645.331 322.202 644.422 322L644.695 318.575C644.958 318.656 645.261 318.696 645.604 318.696C646.837 318.696 647.706 317.969 648.211 316.514C648.736 315.039 649.059 312.725 649.181 309.573L649.484 300.784H665.093ZM680.851 307.967C683.397 307.967 685.347 308.543 686.701 309.694C688.075 310.826 688.762 312.513 688.762 314.756C688.762 317.1 688.015 318.898 686.519 320.151C685.024 321.384 682.923 322 680.215 322H671.092V300.784H674.971V307.967H680.851ZM680.033 318.969C681.569 318.969 682.751 318.615 683.579 317.908C684.408 317.201 684.822 316.171 684.822 314.817C684.822 312.251 683.226 310.967 680.033 310.967H674.971V318.969H680.033ZM706.053 304.118H699.021V322H695.112V304.118H688.11V300.784H706.053V304.118ZM722.449 317.09H711.841L709.75 322H705.688L715.236 300.784H719.115L728.693 322H724.571L722.449 317.09ZM721.146 313.998L717.145 304.724L713.175 313.998H721.146ZM753.618 318.666V326.668H749.981V322H731.977V300.784H735.856V318.666H746.556V300.784H750.465V318.666H753.618ZM757.254 300.784H761.134V315.847L772.53 300.784H776.198V322H772.318V306.967L760.922 322H757.254V300.784ZM782.177 300.784H786.056V315.847L797.452 300.784H801.12V322H797.24V306.967L785.844 322H782.177V300.784ZM807.826 317.181C808.533 317.181 809.119 317.413 809.584 317.878C810.049 318.343 810.281 318.949 810.281 319.696C810.281 320.02 810.231 320.363 810.13 320.727C810.049 321.071 809.867 321.596 809.584 322.303L808.038 326.577H805.583L806.796 321.939C806.351 321.758 805.998 321.475 805.735 321.091C805.492 320.687 805.371 320.222 805.371 319.696C805.371 318.949 805.604 318.343 806.068 317.878C806.533 317.413 807.119 317.181 807.826 317.181ZM841.637 300.784V322H837.757V304.118H826.755V322H822.875V300.784H841.637ZM857.439 322.303C855.277 322.303 853.327 321.838 851.59 320.909C849.852 319.959 848.488 318.656 847.498 316.999C846.508 315.322 846.013 313.453 846.013 311.392C846.013 309.331 846.508 307.472 847.498 305.815C848.488 304.138 849.852 302.834 851.59 301.905C853.327 300.955 855.277 300.48 857.439 300.48C859.601 300.48 861.551 300.955 863.289 301.905C865.027 302.834 866.391 304.128 867.381 305.785C868.371 307.441 868.866 309.311 868.866 311.392C868.866 313.473 868.371 315.342 867.381 316.999C866.391 318.656 865.027 319.959 863.289 320.909C861.551 321.838 859.601 322.303 857.439 322.303ZM857.439 318.848C858.854 318.848 860.127 318.535 861.258 317.908C862.39 317.262 863.279 316.373 863.925 315.241C864.572 314.089 864.895 312.806 864.895 311.392C864.895 309.977 864.572 308.704 863.925 307.573C863.279 306.421 862.39 305.532 861.258 304.906C860.127 304.259 858.854 303.936 857.439 303.936C856.025 303.936 854.752 304.259 853.62 304.906C852.489 305.532 851.6 306.421 850.953 307.573C850.306 308.704 849.983 309.977 849.983 311.392C849.983 312.806 850.306 314.089 850.953 315.241C851.6 316.373 852.489 317.262 853.62 317.908C854.752 318.535 856.025 318.848 857.439 318.848ZM892.711 322L892.681 307.936L885.71 319.575H883.952L876.98 308.118V322H873.252V300.784H876.495L884.891 314.817L893.196 300.784H896.409L896.469 322H892.711ZM912.227 322.303C910.065 322.303 908.115 321.838 906.377 320.909C904.639 319.959 903.275 318.656 902.285 316.999C901.295 315.322 900.8 313.453 900.8 311.392C900.8 309.331 901.295 307.472 902.285 305.815C903.275 304.138 904.639 302.834 906.377 301.905C908.115 300.955 910.065 300.48 912.227 300.48C914.389 300.48 916.339 300.955 918.076 301.905C919.814 302.834 921.178 304.128 922.168 305.785C923.158 307.441 923.653 309.311 923.653 311.392C923.653 313.473 923.158 315.342 922.168 316.999C921.178 318.656 919.814 319.959 918.076 320.909C916.339 321.838 914.389 322.303 912.227 322.303ZM912.227 318.848C913.641 318.848 914.914 318.535 916.046 317.908C917.177 317.262 918.066 316.373 918.713 315.241C919.36 314.089 919.683 312.806 919.683 311.392C919.683 309.977 919.36 308.704 918.713 307.573C918.066 306.421 917.177 305.532 916.046 304.906C914.914 304.259 913.641 303.936 912.227 303.936C910.812 303.936 909.539 304.259 908.408 304.906C907.276 305.532 906.387 306.421 905.741 307.573C905.094 308.704 904.771 309.977 904.771 311.392C904.771 312.806 905.094 314.089 905.741 315.241C906.387 316.373 907.276 317.262 908.408 317.908C909.539 318.535 910.812 318.848 912.227 318.848ZM955.288 300.784V322H928.04V300.784H931.92V318.666H939.739V300.784H943.619V318.666H951.408V300.784H955.288ZM958.349 318.666V326.516H954.712V322H951.317V318.666H958.349ZM971.927 307.967C974.473 307.967 976.423 308.543 977.777 309.694C979.151 310.826 979.838 312.513 979.838 314.756C979.838 317.1 979.09 318.898 977.595 320.151C976.1 321.384 973.998 322 971.291 322H962.167V300.784H966.047V307.967H971.927ZM971.109 318.969C972.644 318.969 973.826 318.615 974.655 317.908C975.483 317.201 975.898 316.171 975.898 314.817C975.898 312.251 974.301 310.967 971.109 310.967H966.047V318.969H971.109Z" fill="#333333"/>
<path d="M130.444 215.123V259H120.352V223.397H100.545V259H90.4533V215.123H130.444ZM162.256 259.752C157.701 259.752 153.585 258.77 149.908 256.806C146.272 254.842 143.41 252.147 141.32 248.72C139.273 245.252 138.249 241.366 138.249 237.062C138.249 232.758 139.273 228.892 141.32 225.466C143.41 221.997 146.272 219.281 149.908 217.317C153.585 215.353 157.701 214.371 162.256 214.371C166.811 214.371 170.906 215.353 174.541 217.317C178.177 219.281 181.039 221.997 183.129 225.466C185.218 228.892 186.263 232.758 186.263 237.062C186.263 241.366 185.218 245.252 183.129 248.72C181.039 252.147 178.177 254.842 174.541 256.806C170.906 258.77 166.811 259.752 162.256 259.752ZM162.256 251.102C164.847 251.102 167.187 250.517 169.276 249.347C171.366 248.135 172.995 246.464 174.165 244.333C175.377 242.201 175.983 239.778 175.983 237.062C175.983 234.345 175.377 231.922 174.165 229.791C172.995 227.659 171.366 226.009 169.276 224.839C167.187 223.627 164.847 223.021 162.256 223.021C159.665 223.021 157.325 223.627 155.236 224.839C153.146 226.009 151.496 227.659 150.284 229.791C149.114 231.922 148.529 234.345 148.529 237.062C148.529 239.778 149.114 242.201 150.284 244.333C151.496 246.464 153.146 248.135 155.236 249.347C157.325 250.517 159.665 251.102 162.256 251.102ZM232.772 259.752C228.217 259.752 224.101 258.77 220.424 256.806C216.789 254.842 213.926 252.147 211.837 248.72C209.789 245.252 208.765 241.366 208.765 237.062C208.765 232.758 209.789 228.892 211.837 225.466C213.926 221.997 216.789 219.281 220.424 217.317C224.101 215.353 228.217 214.371 232.772 214.371C237.327 214.371 241.422 215.353 245.058 217.317C248.693 219.281 251.556 221.997 253.645 225.466C255.734 228.892 256.779 232.758 256.779 237.062C256.779 241.366 255.734 245.252 253.645 248.72C251.556 252.147 248.693 254.842 245.058 256.806C241.422 258.77 237.327 259.752 232.772 259.752ZM232.772 251.102C235.363 251.102 237.703 250.517 239.792 249.347C241.882 248.135 243.512 246.464 244.682 244.333C245.893 242.201 246.499 239.778 246.499 237.062C246.499 234.345 245.893 231.922 244.682 229.791C243.512 227.659 241.882 226.009 239.792 224.839C237.703 223.627 235.363 223.021 232.772 223.021C230.181 223.021 227.841 223.627 225.752 224.839C223.663 226.009 222.012 227.659 220.8 229.791C219.63 231.922 219.045 234.345 219.045 237.062C219.045 239.778 219.63 242.201 220.8 244.333C222.012 246.464 223.663 248.135 225.752 249.347C227.841 250.517 230.181 251.102 232.772 251.102ZM297.524 223.397H283.483V259H273.454V223.397H259.476V215.123H297.524V223.397ZM344.141 215.123V259H333.987V241.011H314.054V259H303.9V215.123H314.054V232.423H333.987V215.123H344.141ZM376.07 259.752C371.515 259.752 367.399 258.77 363.721 256.806C360.086 254.842 357.223 252.147 355.134 248.72C353.086 245.252 352.063 241.366 352.063 237.062C352.063 232.758 353.086 228.892 355.134 225.466C357.223 221.997 360.086 219.281 363.721 217.317C367.399 215.353 371.515 214.371 376.07 214.371C380.624 214.371 384.72 215.353 388.355 217.317C391.991 219.281 394.853 221.997 396.942 225.466C399.032 228.892 400.076 232.758 400.076 237.062C400.076 241.366 399.032 245.252 396.942 248.72C394.853 252.147 391.991 254.842 388.355 256.806C384.72 258.77 380.624 259.752 376.07 259.752ZM376.07 251.102C378.66 251.102 381 250.517 383.09 249.347C385.179 248.135 386.809 246.464 387.979 244.333C389.191 242.201 389.797 239.778 389.797 237.062C389.797 234.345 389.191 231.922 387.979 229.791C386.809 227.659 385.179 226.009 383.09 224.839C381 223.627 378.66 223.021 376.07 223.021C373.479 223.021 371.139 223.627 369.049 224.839C366.96 226.009 365.309 227.659 364.097 229.791C362.927 231.922 362.342 234.345 362.342 237.062C362.342 239.778 362.927 242.201 364.097 244.333C365.309 246.464 366.96 248.135 369.049 249.347C371.139 250.517 373.479 251.102 376.07 251.102ZM465.816 215.123V259H407.899V215.123H417.99V250.726H431.843V215.123H441.935V250.726H455.725V215.123H465.816ZM510.674 250.851V259H476.701V215.123H509.859V223.272H486.793V232.799H507.164V240.697H486.793V250.851H510.674ZM559.118 215.123V259H548.963V241.011H529.031V259H518.876V215.123H529.031V232.423H548.963V215.123H559.118ZM570.111 215.123H580.202V243.706L601.138 215.123H610.665V259H600.636V230.48L579.701 259H570.111V215.123ZM656.629 215.123V259H646.6V247.341H637.323L629.55 259H618.832L627.983 245.774C625.017 244.562 622.739 242.745 621.151 240.321C619.563 237.856 618.769 234.91 618.769 231.483C618.769 228.098 619.542 225.194 621.089 222.77C622.635 220.305 624.829 218.424 627.67 217.129C630.512 215.792 633.855 215.123 637.699 215.123H656.629ZM637.95 223.397C635.066 223.397 632.852 224.066 631.306 225.403C629.801 226.74 629.049 228.725 629.049 231.358C629.049 233.907 629.78 235.871 631.243 237.25C632.705 238.629 634.857 239.318 637.699 239.318H646.6V223.397H637.95ZM707.549 259L707.487 232.737L694.574 254.362H690.061L677.149 233.238V259H667.621V215.123H676.021L692.443 242.39L708.615 215.123H717.014L717.077 259H707.549Z" fill="#E5502C"/>
</svg>
